<svg width="358" height="47" viewBox="0 0 358 47" fill="none" xmlns="http://www.w3.org/2000/svg">
<path d="M1.84943 17V1.72727H7.00994C8.2081 1.72727 9.1875 1.94354 9.94815 2.37606C10.7138 2.80362 11.2805 3.38281 11.6484 4.11364C12.0163 4.84446 12.2003 5.6598 12.2003 6.55966C12.2003 7.45952 12.0163 8.27734 11.6484 9.01314C11.2855 9.74893 10.7237 10.3356 9.96307 10.7731C9.20242 11.2056 8.22798 11.4219 7.03977 11.4219H3.34091V9.78125H6.98011C7.80043 9.78125 8.45916 9.63956 8.95632 9.35618C9.45348 9.0728 9.81392 8.68999 10.0376 8.20774C10.2663 7.72053 10.3807 7.17116 10.3807 6.55966C10.3807 5.94815 10.2663 5.40128 10.0376 4.91903C9.81392 4.43679 9.45099 4.05895 8.94886 3.78551C8.44673 3.5071 7.78054 3.3679 6.95028 3.3679H3.69886V17H1.84943ZM14.9409 17V5.54545H16.6412V7.27557H16.7605C16.9693 6.70881 17.3471 6.24893 17.894 5.89595C18.4409 5.54297 19.0574 5.36648 19.7434 5.36648C19.8727 5.36648 20.0343 5.36896 20.2282 5.37393C20.4221 5.37891 20.5687 5.38636 20.6681 5.39631V7.18608C20.6085 7.17116 20.4718 7.14879 20.258 7.11896C20.0492 7.08416 19.8279 7.06676 19.5943 7.06676C19.0375 7.06676 18.5403 7.18359 18.1028 7.41726C17.6703 7.64595 17.3272 7.96413 17.0737 8.3718C16.8251 8.7745 16.7008 9.23437 16.7008 9.75142V17H14.9409ZM27.2083 17.2386C26.1046 17.2386 25.1525 16.995 24.3521 16.5078C23.5566 16.0156 22.9426 15.3295 22.5101 14.4496C22.0826 13.5646 21.8688 12.5355 21.8688 11.3622C21.8688 10.1889 22.0826 9.15483 22.5101 8.25994C22.9426 7.36009 23.5442 6.65909 24.3148 6.15696C25.0904 5.64986 25.9952 5.39631 27.0293 5.39631C27.6259 5.39631 28.215 5.49574 28.7967 5.6946C29.3784 5.89347 29.9078 6.21662 30.3851 6.66406C30.8624 7.10653 31.2427 7.69318 31.5261 8.42401C31.8095 9.15483 31.9512 10.0547 31.9512 11.1236V11.8693H23.1216V10.348H30.1614C30.1614 9.7017 30.0321 9.125 29.7736 8.6179C29.5201 8.11079 29.1571 7.71058 28.6848 7.41726C28.2175 7.12393 27.6657 6.97727 27.0293 6.97727C26.3283 6.97727 25.7218 7.15128 25.2097 7.49929C24.7026 7.84233 24.3123 8.28977 24.0389 8.84162C23.7654 9.39347 23.6287 9.98508 23.6287 10.6165V11.6307C23.6287 12.4957 23.7779 13.229 24.0762 13.8306C24.3794 14.4272 24.7995 14.8821 25.3365 15.1953C25.8734 15.5036 26.4973 15.6577 27.2083 15.6577C27.6706 15.6577 28.0882 15.593 28.4611 15.4638C28.839 15.3295 29.1646 15.1307 29.438 14.8672C29.7115 14.5987 29.9228 14.2656 30.0719 13.8679L31.7722 14.3452C31.5932 14.9219 31.2924 15.429 30.8699 15.8665C30.4473 16.299 29.9252 16.6371 29.3038 16.8807C28.6824 17.1193 27.9838 17.2386 27.2083 17.2386ZM34.6284 21.2955V5.54545H36.3287V7.36506H36.5375C36.6667 7.16619 36.8457 6.91264 37.0744 6.6044C37.3081 6.29119 37.6412 6.01278 38.0737 5.76918C38.5112 5.5206 39.1028 5.39631 39.8485 5.39631C40.813 5.39631 41.6632 5.63743 42.399 6.11967C43.1348 6.60192 43.709 7.28551 44.1216 8.17045C44.5343 9.0554 44.7406 10.0994 44.7406 11.3026C44.7406 12.5156 44.5343 13.5671 44.1216 14.457C43.709 15.342 43.1373 16.0281 42.4064 16.5153C41.6756 16.9975 40.8329 17.2386 39.8784 17.2386C39.1426 17.2386 38.5534 17.1168 38.111 16.8732C37.6685 16.6246 37.3279 16.3437 37.0893 16.0305C36.8507 15.7124 36.6667 15.4489 36.5375 15.2401H36.3883V21.2955H34.6284ZM36.3585 11.2727C36.3585 12.1378 36.4853 12.9009 36.7388 13.5621C36.9924 14.2184 37.3627 14.733 37.85 15.1058C38.3372 15.4737 38.9338 15.6577 39.6397 15.6577C40.3755 15.6577 40.9895 15.4638 41.4817 15.076C41.9789 14.6832 42.3517 14.1562 42.6003 13.495C42.8539 12.8288 42.9806 12.0881 42.9806 11.2727C42.9806 10.4673 42.8564 9.74148 42.6078 9.09517C42.3642 8.44389 41.9938 7.92933 41.4966 7.55149C41.0044 7.16868 40.3855 6.97727 39.6397 6.97727C38.9238 6.97727 38.3223 7.15874 37.835 7.52166C37.3478 7.87962 36.9799 8.38175 36.7314 9.02805C36.4828 9.66939 36.3585 10.4176 36.3585 11.2727ZM50.796 17.2685C50.0701 17.2685 49.4114 17.1317 48.8198 16.8583C48.2282 16.5799 47.7583 16.1797 47.4103 15.6577C47.0623 15.1307 46.8883 14.4943 46.8883 13.7486C46.8883 13.0923 47.0176 12.5604 47.2761 12.1527C47.5346 11.7401 47.8801 11.4169 48.3127 11.1832C48.7452 10.9496 49.2225 10.7756 49.7445 10.6612C50.2715 10.5419 50.801 10.4474 51.3329 10.3778C52.0289 10.2884 52.5932 10.2212 53.0257 10.1765C53.4632 10.1268 53.7814 10.0447 53.9803 9.9304C54.1841 9.81605 54.286 9.61719 54.286 9.33381V9.27415C54.286 8.53835 54.0847 7.96662 53.682 7.55895C53.2843 7.15128 52.6802 6.94744 51.8699 6.94744C51.0297 6.94744 50.3709 7.13139 49.8936 7.49929C49.4164 7.86719 49.0808 8.25994 48.8869 8.67756L47.2164 8.08097C47.5147 7.38494 47.9125 6.84304 48.4096 6.45526C48.9118 6.0625 49.4586 5.78906 50.0502 5.63494C50.6468 5.47585 51.2335 5.39631 51.8102 5.39631C52.1781 5.39631 52.6007 5.44105 53.0779 5.53054C53.5602 5.61506 54.025 5.79155 54.4725 6.06001C54.9249 6.32848 55.3002 6.73366 55.5985 7.27557C55.8968 7.81747 56.046 8.54332 56.046 9.45312V17H54.286V15.4489H54.1966C54.0772 15.6974 53.8784 15.9634 53.6 16.2468C53.3216 16.5302 52.9512 16.7713 52.4888 16.9702C52.0265 17.169 51.4622 17.2685 50.796 17.2685ZM51.0645 15.6875C51.7605 15.6875 52.3471 15.5508 52.8244 15.2773C53.3066 15.0039 53.6696 14.6509 53.9132 14.2184C54.1618 13.7859 54.286 13.331 54.286 12.8537V11.2429C54.2115 11.3324 54.0474 11.4144 53.7939 11.489C53.5453 11.5586 53.2569 11.6207 52.9288 11.6754C52.6056 11.7251 52.29 11.7699 51.9817 11.8097C51.6784 11.8445 51.4324 11.8743 51.2434 11.8991C50.786 11.9588 50.3585 12.0558 49.9608 12.19C49.568 12.3192 49.2498 12.5156 49.0062 12.7791C48.7676 13.0376 48.6483 13.3906 48.6483 13.8381C48.6483 14.4496 48.8745 14.9119 49.3269 15.2251C49.7843 15.5334 50.3635 15.6875 51.0645 15.6875ZM59.2583 17V5.54545H60.9585V7.27557H61.0779C61.2867 6.70881 61.6645 6.24893 62.2114 5.89595C62.7583 5.54297 63.3747 5.36648 64.0608 5.36648C64.1901 5.36648 64.3517 5.36896 64.5455 5.37393C64.7394 5.37891 64.8861 5.38636 64.9855 5.39631V7.18608C64.9259 7.17116 64.7892 7.14879 64.5754 7.11896C64.3666 7.08416 64.1453 7.06676 63.9117 7.06676C63.3548 7.06676 62.8577 7.18359 62.4202 7.41726C61.9877 7.64595 61.6446 7.96413 61.3911 8.3718C61.1425 8.7745 61.0182 9.23437 61.0182 9.75142V17H59.2583ZM71.5257 17.2386C70.422 17.2386 69.4699 16.995 68.6695 16.5078C67.874 16.0156 67.26 15.3295 66.8275 14.4496C66.3999 13.5646 66.1862 12.5355 66.1862 11.3622C66.1862 10.1889 66.3999 9.15483 66.8275 8.25994C67.26 7.36009 67.8616 6.65909 68.6322 6.15696C69.4078 5.64986 70.3126 5.39631 71.3467 5.39631C71.9433 5.39631 72.5324 5.49574 73.1141 5.6946C73.6958 5.89347 74.2252 6.21662 74.7025 6.66406C75.1798 7.10653 75.5601 7.69318 75.8435 8.42401C76.1269 9.15483 76.2686 10.0547 76.2686 11.1236V11.8693H67.439V10.348H74.4788C74.4788 9.7017 74.3495 9.125 74.091 8.6179C73.8374 8.11079 73.4745 7.71058 73.0022 7.41726C72.5349 7.12393 71.983 6.97727 71.3467 6.97727C70.6457 6.97727 70.0392 7.15128 69.5271 7.49929C69.02 7.84233 68.6297 8.28977 68.3563 8.84162C68.0828 9.39347 67.9461 9.98508 67.9461 10.6165V11.6307C67.9461 12.4957 68.0953 13.229 68.3936 13.8306C68.6968 14.4272 69.1169 14.8821 69.6539 15.1953C70.1908 15.5036 70.8147 15.6577 71.5257 15.6577C71.988 15.6577 72.4056 15.593 72.7785 15.4638C73.1563 15.3295 73.482 15.1307 73.7554 14.8672C74.0289 14.5987 74.2401 14.2656 74.3893 13.8679L76.0896 14.3452C75.9106 14.9219 75.6098 15.429 75.1872 15.8665C74.7646 16.299 74.2426 16.6371 73.6212 16.8807C72.9997 17.1193 72.3012 17.2386 71.5257 17.2386ZM85.5083 9.6321V11.2727H78.8264V9.6321H85.5083ZM96.7186 8.1108L95.1376 8.55824C95.0382 8.29474 94.8915 8.03871 94.6976 7.79013C94.5087 7.53658 94.2502 7.32777 93.9221 7.16371C93.5939 6.99964 93.1738 6.91761 92.6618 6.91761C91.9608 6.91761 91.3766 7.07919 90.9093 7.40234C90.4469 7.72053 90.2157 8.12571 90.2157 8.6179C90.2157 9.0554 90.3748 9.40092 90.693 9.65447C91.0112 9.90803 91.5083 10.1193 92.1845 10.2884L93.8848 10.706C94.9089 10.9545 95.6721 11.3349 96.1742 11.8469C96.6763 12.354 96.9274 13.0078 96.9274 13.8082C96.9274 14.4645 96.7385 15.0511 96.3606 15.5682C95.9877 16.0852 95.4657 16.4929 94.7946 16.7912C94.1234 17.0895 93.3429 17.2386 92.4529 17.2386C91.2846 17.2386 90.3176 16.9851 89.552 16.478C88.7864 15.9709 88.3017 15.2301 88.0978 14.2557L89.7683 13.8381C89.9274 14.4545 90.2282 14.9169 90.6706 15.2251C91.1181 15.5334 91.7022 15.6875 92.4231 15.6875C93.2434 15.6875 93.8947 15.5135 94.377 15.1655C94.8642 14.8125 95.1078 14.3899 95.1078 13.8977C95.1078 13.5 94.9686 13.1669 94.6902 12.8984C94.4118 12.625 93.9842 12.4212 93.4075 12.2869L91.4984 11.8395C90.4494 11.5909 89.6788 11.2056 89.1866 10.6836C88.6994 10.1566 88.4558 9.49787 88.4558 8.70739C88.4558 8.06108 88.6373 7.48935 89.0002 6.99219C89.3681 6.49503 89.8677 6.10476 90.4991 5.82138C91.1355 5.538 91.8564 5.39631 92.6618 5.39631C93.7953 5.39631 94.6852 5.64489 95.3315 6.14204C95.9828 6.6392 96.4451 7.29545 96.7186 8.1108ZM104.379 17.2386C103.275 17.2386 102.323 16.995 101.523 16.5078C100.728 16.0156 100.114 15.3295 99.681 14.4496C99.2535 13.5646 99.0397 12.5355 99.0397 11.3622C99.0397 10.1889 99.2535 9.15483 99.681 8.25994C100.114 7.36009 100.715 6.65909 101.486 6.15696C102.261 5.64986 103.166 5.39631 104.2 5.39631C104.797 5.39631 105.386 5.49574 105.968 5.6946C106.549 5.89347 107.079 6.21662 107.556 6.66406C108.033 7.10653 108.414 7.69318 108.697 8.42401C108.98 9.15483 109.122 10.0547 109.122 11.1236V11.8693H100.293V10.348H107.332C107.332 9.7017 107.203 9.125 106.945 8.6179C106.691 8.11079 106.328 7.71058 105.856 7.41726C105.388 7.12393 104.837 6.97727 104.2 6.97727C103.499 6.97727 102.893 7.15128 102.381 7.49929C101.873 7.84233 101.483 8.28977 101.21 8.84162C100.936 9.39347 100.8 9.98508 100.8 10.6165V11.6307C100.8 12.4957 100.949 13.229 101.247 13.8306C101.55 14.4272 101.97 14.8821 102.507 15.1953C103.044 15.5036 103.668 15.6577 104.379 15.6577C104.842 15.6577 105.259 15.593 105.632 15.4638C106.01 15.3295 106.335 15.1307 106.609 14.8672C106.882 14.5987 107.094 14.2656 107.243 13.8679L108.943 14.3452C108.764 14.9219 108.463 15.429 108.041 15.8665C107.618 16.299 107.096 16.6371 106.475 16.8807C105.853 17.1193 105.155 17.2386 104.379 17.2386ZM117.706 21.2955V5.54545H119.406V7.36506H119.615C119.744 7.16619 119.923 6.91264 120.152 6.6044C120.385 6.29119 120.718 6.01278 121.151 5.76918C121.588 5.5206 122.18 5.39631 122.926 5.39631C123.89 5.39631 124.74 5.63743 125.476 6.11967C126.212 6.60192 126.786 7.28551 127.199 8.17045C127.611 9.0554 127.818 10.0994 127.818 11.3026C127.818 12.5156 127.611 13.5671 127.199 14.457C126.786 15.342 126.214 16.0281 125.484 16.5153C124.753 16.9975 123.91 17.2386 122.956 17.2386C122.22 17.2386 121.631 17.1168 121.188 16.8732C120.746 16.6246 120.405 16.3437 120.166 16.0305C119.928 15.7124 119.744 15.4489 119.615 15.2401H119.465V21.2955H117.706ZM119.436 11.2727C119.436 12.1378 119.562 12.9009 119.816 13.5621C120.07 14.2184 120.44 14.733 120.927 15.1058C121.414 15.4737 122.011 15.6577 122.717 15.6577C123.453 15.6577 124.067 15.4638 124.559 15.076C125.056 14.6832 125.429 14.1562 125.677 13.495C125.931 12.8288 126.058 12.0881 126.058 11.2727C126.058 10.4673 125.934 9.74148 125.685 9.09517C125.441 8.44389 125.071 7.92933 124.574 7.55149C124.082 7.16868 123.463 6.97727 122.717 6.97727C122.001 6.97727 121.399 7.15874 120.912 7.52166C120.425 7.87962 120.057 8.38175 119.809 9.02805C119.56 9.66939 119.436 10.4176 119.436 11.2727ZM133.873 17.2685C133.147 17.2685 132.489 17.1317 131.897 16.8583C131.305 16.5799 130.835 16.1797 130.487 15.6577C130.139 15.1307 129.965 14.4943 129.965 13.7486C129.965 13.0923 130.095 12.5604 130.353 12.1527C130.612 11.7401 130.957 11.4169 131.39 11.1832C131.822 10.9496 132.3 10.7756 132.822 10.6612C133.349 10.5419 133.878 10.4474 134.41 10.3778C135.106 10.2884 135.67 10.2212 136.103 10.1765C136.54 10.1268 136.859 10.0447 137.057 9.9304C137.261 9.81605 137.363 9.61719 137.363 9.33381V9.27415C137.363 8.53835 137.162 7.96662 136.759 7.55895C136.361 7.15128 135.757 6.94744 134.947 6.94744C134.107 6.94744 133.448 7.13139 132.971 7.49929C132.494 7.86719 132.158 8.25994 131.964 8.67756L130.294 8.08097C130.592 7.38494 130.99 6.84304 131.487 6.45526C131.989 6.0625 132.536 5.78906 133.127 5.63494C133.724 5.47585 134.311 5.39631 134.887 5.39631C135.255 5.39631 135.678 5.44105 136.155 5.53054C136.637 5.61506 137.102 5.79155 137.55 6.06001C138.002 6.32848 138.377 6.73366 138.676 7.27557C138.974 7.81747 139.123 8.54332 139.123 9.45312V17H137.363V15.4489H137.274C137.154 15.6974 136.956 15.9634 136.677 16.2468C136.399 16.5302 136.028 16.7713 135.566 16.9702C135.104 17.169 134.539 17.2685 133.873 17.2685ZM134.142 15.6875C134.838 15.6875 135.424 15.5508 135.902 15.2773C136.384 15.0039 136.747 14.6509 136.99 14.2184C137.239 13.7859 137.363 13.331 137.363 12.8537V11.2429C137.289 11.3324 137.125 11.4144 136.871 11.489C136.622 11.5586 136.334 11.6207 136.006 11.6754C135.683 11.7251 135.367 11.7699 135.059 11.8097C134.756 11.8445 134.509 11.8743 134.321 11.8991C133.863 11.9588 133.436 12.0558 133.038 12.19C132.645 12.3192 132.327 12.5156 132.083 12.7791C131.845 13.0376 131.725 13.3906 131.725 13.8381C131.725 14.4496 131.952 14.9119 132.404 15.2251C132.861 15.5334 133.441 15.6875 134.142 15.6875ZM142.335 17V5.54545H144.036V7.27557H144.155C144.364 6.70881 144.742 6.24893 145.289 5.89595C145.835 5.54297 146.452 5.36648 147.138 5.36648C147.267 5.36648 147.429 5.36896 147.623 5.37393C147.817 5.37891 147.963 5.38636 148.063 5.39631V7.18608C148.003 7.17116 147.866 7.14879 147.653 7.11896C147.444 7.08416 147.222 7.06676 146.989 7.06676C146.432 7.06676 145.935 7.18359 145.497 7.41726C145.065 7.64595 144.722 7.96413 144.468 8.3718C144.22 8.7745 144.095 9.23437 144.095 9.75142V17H142.335ZM153.52 17.2685C152.794 17.2685 152.135 17.1317 151.543 16.8583C150.952 16.5799 150.482 16.1797 150.134 15.6577C149.786 15.1307 149.612 14.4943 149.612 13.7486C149.612 13.0923 149.741 12.5604 150 12.1527C150.258 11.7401 150.604 11.4169 151.036 11.1832C151.469 10.9496 151.946 10.7756 152.468 10.6612C152.995 10.5419 153.525 10.4474 154.057 10.3778C154.753 10.2884 155.317 10.2212 155.749 10.1765C156.187 10.1268 156.505 10.0447 156.704 9.9304C156.908 9.81605 157.01 9.61719 157.01 9.33381V9.27415C157.01 8.53835 156.808 7.96662 156.406 7.55895C156.008 7.15128 155.404 6.94744 154.593 6.94744C153.753 6.94744 153.095 7.13139 152.617 7.49929C152.14 7.86719 151.804 8.25994 151.611 8.67756L149.94 8.08097C150.238 7.38494 150.636 6.84304 151.133 6.45526C151.635 6.0625 152.182 5.78906 152.774 5.63494C153.37 5.47585 153.957 5.39631 154.534 5.39631C154.902 5.39631 155.324 5.44105 155.802 5.53054C156.284 5.61506 156.749 5.79155 157.196 6.06001C157.649 6.32848 158.024 6.73366 158.322 7.27557C158.62 7.81747 158.77 8.54332 158.77 9.45312V17H157.01V15.4489H156.92C156.801 15.6974 156.602 15.9634 156.324 16.2468C156.045 16.5302 155.675 16.7713 155.212 16.9702C154.75 17.169 154.186 17.2685 153.52 17.2685ZM153.788 15.6875C154.484 15.6875 155.071 15.5508 155.548 15.2773C156.03 15.0039 156.393 14.6509 156.637 14.2184C156.885 13.7859 157.01 13.331 157.01 12.8537V11.2429C156.935 11.3324 156.771 11.4144 156.517 11.489C156.269 11.5586 155.981 11.6207 155.652 11.6754C155.329 11.7251 155.014 11.7699 154.705 11.8097C154.402 11.8445 154.156 11.8743 153.967 11.8991C153.51 11.9588 153.082 12.0558 152.684 12.19C152.292 12.3192 151.973 12.5156 151.73 12.7791C151.491 13.0376 151.372 13.3906 151.372 13.8381C151.372 14.4496 151.598 14.9119 152.051 15.2251C152.508 15.5334 153.087 15.6875 153.788 15.6875ZM172.512 21.5341C171.662 21.5341 170.931 21.4247 170.319 21.206C169.708 20.9922 169.198 20.7088 168.79 20.3558C168.388 20.0078 168.067 19.6349 167.828 19.2372L169.23 18.2528C169.39 18.4616 169.591 18.7003 169.835 18.9688C170.078 19.2422 170.411 19.4783 170.834 19.6772C171.261 19.881 171.821 19.983 172.512 19.983C173.436 19.983 174.2 19.7592 174.801 19.3118C175.403 18.8643 175.703 18.1634 175.703 17.2088V14.8821H175.554C175.425 15.0909 175.241 15.3494 175.002 15.6577C174.769 15.9609 174.431 16.2319 173.988 16.4705C173.551 16.7042 172.959 16.821 172.213 16.821C171.289 16.821 170.458 16.6023 169.723 16.1648C168.992 15.7273 168.413 15.0909 167.985 14.2557C167.563 13.4205 167.351 12.4062 167.351 11.2131C167.351 10.0398 167.558 9.01811 167.97 8.14808C168.383 7.27308 168.957 6.59695 169.693 6.11967C170.429 5.63743 171.279 5.39631 172.243 5.39631C172.989 5.39631 173.581 5.5206 174.018 5.76918C174.461 6.01278 174.799 6.29119 175.032 6.6044C175.271 6.91264 175.455 7.16619 175.584 7.36506H175.763V5.54545H177.463V17.3281C177.463 18.3125 177.24 19.1129 176.792 19.7294C176.35 20.3509 175.753 20.8058 175.002 21.0941C174.257 21.3874 173.426 21.5341 172.512 21.5341ZM172.452 15.2401C173.158 15.2401 173.755 15.0785 174.242 14.7553C174.729 14.4322 175.099 13.9673 175.353 13.3608C175.607 12.7543 175.733 12.0284 175.733 11.1832C175.733 10.358 175.609 9.62962 175.36 8.99822C175.112 8.36683 174.744 7.87216 174.257 7.5142C173.77 7.15625 173.168 6.97727 172.452 6.97727C171.706 6.97727 171.085 7.16619 170.588 7.54403C170.096 7.92187 169.725 8.42898 169.477 9.06534C169.233 9.7017 169.111 10.4077 169.111 11.1832C169.111 11.9787 169.235 12.6822 169.484 13.2937C169.738 13.9002 170.11 14.3775 170.603 14.7255C171.1 15.0685 171.716 15.2401 172.452 15.2401ZM180.685 17V5.54545H182.385V7.27557H182.505C182.713 6.70881 183.091 6.24893 183.638 5.89595C184.185 5.54297 184.801 5.36648 185.488 5.36648C185.617 5.36648 185.778 5.36896 185.972 5.37393C186.166 5.37891 186.313 5.38636 186.412 5.39631V7.18608C186.353 7.17116 186.216 7.14879 186.002 7.11896C185.793 7.08416 185.572 7.06676 185.338 7.06676C184.782 7.06676 184.284 7.18359 183.847 7.41726C183.414 7.64595 183.071 7.96413 182.818 8.3718C182.569 8.7745 182.445 9.23437 182.445 9.75142V17H180.685ZM195.717 12.3168V5.54545H197.477V17H195.717V15.0611H195.598C195.329 15.6428 194.912 16.1374 194.345 16.5451C193.778 16.9478 193.062 17.1491 192.197 17.1491C191.481 17.1491 190.845 16.9925 190.288 16.6793C189.731 16.3612 189.294 15.8839 188.976 15.2475C188.658 14.6062 188.498 13.7983 188.498 12.8239V5.54545H190.258V12.7045C190.258 13.5398 190.492 14.206 190.959 14.7031C191.432 15.2003 192.033 15.4489 192.764 15.4489C193.202 15.4489 193.647 15.337 194.099 15.1133C194.556 14.8896 194.939 14.5465 195.247 14.0842C195.561 13.6218 195.717 13.0327 195.717 12.3168ZM205.026 17.2386C204.071 17.2386 203.229 16.9975 202.498 16.5153C201.767 16.0281 201.195 15.342 200.783 14.457C200.37 13.5671 200.164 12.5156 200.164 11.3026C200.164 10.0994 200.37 9.0554 200.783 8.17045C201.195 7.28551 201.77 6.60192 202.505 6.11967C203.241 5.63743 204.091 5.39631 205.056 5.39631C205.801 5.39631 206.391 5.5206 206.823 5.76918C207.261 6.01278 207.594 6.29119 207.822 6.6044C208.056 6.91264 208.238 7.16619 208.367 7.36506H208.516V1.72727H210.276V17H208.576V15.2401H208.367C208.238 15.4489 208.054 15.7124 207.815 16.0305C207.576 16.3437 207.236 16.6246 206.793 16.8732C206.351 17.1168 205.762 17.2386 205.026 17.2386ZM205.265 15.6577C205.971 15.6577 206.567 15.4737 207.054 15.1058C207.542 14.733 207.912 14.2184 208.165 13.5621C208.419 12.9009 208.546 12.1378 208.546 11.2727C208.546 10.4176 208.422 9.66939 208.173 9.02805C207.924 8.38175 207.556 7.87962 207.069 7.52166C206.582 7.15874 205.98 6.97727 205.265 6.97727C204.519 6.97727 203.897 7.16868 203.4 7.55149C202.908 7.92933 202.538 8.44389 202.289 9.09517C202.045 9.74148 201.924 10.4673 201.924 11.2727C201.924 12.0881 202.048 12.8288 202.297 13.495C202.55 14.1562 202.923 14.6832 203.415 15.076C203.912 15.4638 204.529 15.6577 205.265 15.6577ZM217.114 17.2685C216.388 17.2685 215.73 17.1317 215.138 16.8583C214.547 16.5799 214.077 16.1797 213.729 15.6577C213.381 15.1307 213.207 14.4943 213.207 13.7486C213.207 13.0923 213.336 12.5604 213.594 12.1527C213.853 11.7401 214.199 11.4169 214.631 11.1832C215.064 10.9496 215.541 10.7756 216.063 10.6612C216.59 10.5419 217.119 10.4474 217.651 10.3778C218.347 10.2884 218.912 10.2212 219.344 10.1765C219.782 10.1268 220.1 10.0447 220.299 9.9304C220.502 9.81605 220.604 9.61719 220.604 9.33381V9.27415C220.604 8.53835 220.403 7.96662 220 7.55895C219.603 7.15128 218.999 6.94744 218.188 6.94744C217.348 6.94744 216.689 7.13139 216.212 7.49929C215.735 7.86719 215.399 8.25994 215.205 8.67756L213.535 8.08097C213.833 7.38494 214.231 6.84304 214.728 6.45526C215.23 6.0625 215.777 5.78906 216.369 5.63494C216.965 5.47585 217.552 5.39631 218.129 5.39631C218.496 5.39631 218.919 5.44105 219.396 5.53054C219.879 5.61506 220.343 5.79155 220.791 6.06001C221.243 6.32848 221.619 6.73366 221.917 7.27557C222.215 7.81747 222.364 8.54332 222.364 9.45312V17H220.604V15.4489H220.515C220.396 15.6974 220.197 15.9634 219.918 16.2468C219.64 16.5302 219.27 16.7713 218.807 16.9702C218.345 17.169 217.781 17.2685 217.114 17.2685ZM217.383 15.6875C218.079 15.6875 218.665 15.5508 219.143 15.2773C219.625 15.0039 219.988 14.6509 220.232 14.2184C220.48 13.7859 220.604 13.331 220.604 12.8537V11.2429C220.53 11.3324 220.366 11.4144 220.112 11.489C219.864 11.5586 219.575 11.6207 219.247 11.6754C218.924 11.7251 218.608 11.7699 218.3 11.8097C217.997 11.8445 217.751 11.8743 217.562 11.8991C217.104 11.9588 216.677 12.0558 216.279 12.19C215.886 12.3192 215.568 12.5156 215.325 12.7791C215.086 13.0376 214.967 13.3906 214.967 13.8381C214.967 14.4496 215.193 14.9119 215.645 15.2251C216.103 15.5334 216.682 15.6875 217.383 15.6875ZM225.577 17V5.54545H227.277V7.27557H227.396C227.605 6.70881 227.983 6.24893 228.53 5.89595C229.077 5.54297 229.693 5.36648 230.379 5.36648C230.508 5.36648 230.67 5.36896 230.864 5.37393C231.058 5.37891 231.204 5.38636 231.304 5.39631V7.18608C231.244 7.17116 231.108 7.14879 230.894 7.11896C230.685 7.08416 230.464 7.06676 230.23 7.06676C229.673 7.06676 229.176 7.18359 228.739 7.41726C228.306 7.64595 227.963 7.96413 227.709 8.3718C227.461 8.7745 227.337 9.23437 227.337 9.75142V17H225.577ZM241.056 10.1094V17H239.296V5.54545H240.997V7.33523H241.146C241.414 6.75355 241.822 6.28622 242.369 5.93324C242.916 5.57528 243.622 5.39631 244.487 5.39631C245.262 5.39631 245.941 5.5554 246.523 5.87358C247.104 6.18679 247.557 6.66406 247.88 7.3054C248.203 7.94176 248.365 8.74716 248.365 9.72159V17H246.605V9.84091C246.605 8.94105 246.371 8.24006 245.904 7.73793C245.436 7.23082 244.795 6.97727 243.98 6.97727C243.418 6.97727 242.916 7.09908 242.473 7.34268C242.036 7.58629 241.69 7.94176 241.437 8.40909C241.183 8.87642 241.056 9.44318 241.056 10.1094ZM256.234 17.2386C255.2 17.2386 254.293 16.9925 253.512 16.5004C252.736 16.0082 252.13 15.3196 251.692 14.4347C251.26 13.5497 251.044 12.5156 251.044 11.3324C251.044 10.1392 251.26 9.09766 251.692 8.20774C252.13 7.31783 252.736 6.62678 253.512 6.13459C254.293 5.6424 255.2 5.39631 256.234 5.39631C257.268 5.39631 258.173 5.6424 258.948 6.13459C259.729 6.62678 260.335 7.31783 260.768 8.20774C261.206 9.09766 261.424 10.1392 261.424 11.3324C261.424 12.5156 261.206 13.5497 260.768 14.4347C260.335 15.3196 259.729 16.0082 258.948 16.5004C258.173 16.9925 257.268 17.2386 256.234 17.2386ZM256.234 15.6577C257.019 15.6577 257.666 15.4563 258.173 15.0536C258.68 14.6509 259.055 14.1214 259.299 13.4652C259.543 12.8089 259.664 12.098 259.664 11.3324C259.664 10.5668 259.543 9.85334 259.299 9.19212C259.055 8.53089 258.68 7.99645 258.173 7.58878C257.666 7.18111 257.019 6.97727 256.234 6.97727C255.448 6.97727 254.802 7.18111 254.295 7.58878C253.788 7.99645 253.413 8.53089 253.169 9.19212C252.925 9.85334 252.804 10.5668 252.804 11.3324C252.804 12.098 252.925 12.8089 253.169 13.4652C253.413 14.1214 253.788 14.6509 254.295 15.0536C254.802 15.4563 255.448 15.6577 256.234 15.6577ZM278.131 8.1108L276.55 8.55824C276.45 8.29474 276.304 8.03871 276.11 7.79013C275.921 7.53658 275.662 7.32777 275.334 7.16371C275.006 6.99964 274.586 6.91761 274.074 6.91761C273.373 6.91761 272.789 7.07919 272.321 7.40234C271.859 7.72053 271.628 8.12571 271.628 8.6179C271.628 9.0554 271.787 9.40092 272.105 9.65447C272.423 9.90803 272.92 10.1193 273.597 10.2884L275.297 10.706C276.321 10.9545 277.084 11.3349 277.586 11.8469C278.088 12.354 278.339 13.0078 278.339 13.8082C278.339 14.4645 278.151 15.0511 277.773 15.5682C277.4 16.0852 276.878 16.4929 276.207 16.7912C275.536 17.0895 274.755 17.2386 273.865 17.2386C272.697 17.2386 271.73 16.9851 270.964 16.478C270.199 15.9709 269.714 15.2301 269.51 14.2557L271.18 13.8381C271.339 14.4545 271.64 14.9169 272.083 15.2251C272.53 15.5334 273.114 15.6875 273.835 15.6875C274.656 15.6875 275.307 15.5135 275.789 15.1655C276.276 14.8125 276.52 14.3899 276.52 13.8977C276.52 13.5 276.381 13.1669 276.102 12.8984C275.824 12.625 275.396 12.4212 274.82 12.2869L272.911 11.8395C271.862 11.5909 271.091 11.2056 270.599 10.6836C270.112 10.1566 269.868 9.49787 269.868 8.70739C269.868 8.06108 270.049 7.48935 270.412 6.99219C270.78 6.49503 271.28 6.10476 271.911 5.82138C272.548 5.538 273.268 5.39631 274.074 5.39631C275.207 5.39631 276.097 5.64489 276.744 6.14204C277.395 6.6392 277.857 7.29545 278.131 8.1108ZM285.642 17.2386C284.608 17.2386 283.701 16.9925 282.92 16.5004C282.145 16.0082 281.538 15.3196 281.101 14.4347C280.668 13.5497 280.452 12.5156 280.452 11.3324C280.452 10.1392 280.668 9.09766 281.101 8.20774C281.538 7.31783 282.145 6.62678 282.92 6.13459C283.701 5.6424 284.608 5.39631 285.642 5.39631C286.676 5.39631 287.581 5.6424 288.357 6.13459C289.137 6.62678 289.744 7.31783 290.176 8.20774C290.614 9.09766 290.832 10.1392 290.832 11.3324C290.832 12.5156 290.614 13.5497 290.176 14.4347C289.744 15.3196 289.137 16.0082 288.357 16.5004C287.581 16.9925 286.676 17.2386 285.642 17.2386ZM285.642 15.6577C286.428 15.6577 287.074 15.4563 287.581 15.0536C288.088 14.6509 288.464 14.1214 288.707 13.4652C288.951 12.8089 289.073 12.098 289.073 11.3324C289.073 10.5668 288.951 9.85334 288.707 9.19212C288.464 8.53089 288.088 7.99645 287.581 7.58878C287.074 7.18111 286.428 6.97727 285.642 6.97727C284.857 6.97727 284.21 7.18111 283.703 7.58878C283.196 7.99645 282.821 8.53089 282.577 9.19212C282.334 9.85334 282.212 10.5668 282.212 11.3324C282.212 12.098 282.334 12.8089 282.577 13.4652C282.821 14.1214 283.196 14.6509 283.703 15.0536C284.21 15.4563 284.857 15.6577 285.642 15.6577ZM298.62 5.54545V7.03693H292.445V5.54545H298.62ZM294.295 17V3.96449C294.295 3.30824 294.449 2.76136 294.757 2.32386C295.065 1.88636 295.465 1.55824 295.958 1.33949C296.45 1.12074 296.969 1.01136 297.516 1.01136C297.949 1.01136 298.302 1.04616 298.575 1.11577C298.849 1.18537 299.052 1.25 299.187 1.30966L298.68 2.83097C298.59 2.80114 298.466 2.76385 298.307 2.7191C298.153 2.67436 297.949 2.65199 297.695 2.65199C297.113 2.65199 296.693 2.79865 296.435 3.09197C296.181 3.3853 296.055 3.81534 296.055 4.3821V17H294.295ZM304.129 17.2685C303.403 17.2685 302.744 17.1317 302.153 16.8583C301.561 16.5799 301.091 16.1797 300.743 15.6577C300.395 15.1307 300.221 14.4943 300.221 13.7486C300.221 13.0923 300.351 12.5604 300.609 12.1527C300.868 11.7401 301.213 11.4169 301.646 11.1832C302.078 10.9496 302.555 10.7756 303.078 10.6612C303.604 10.5419 304.134 10.4474 304.666 10.3778C305.362 10.2884 305.926 10.2212 306.359 10.1765C306.796 10.1268 307.114 10.0447 307.313 9.9304C307.517 9.81605 307.619 9.61719 307.619 9.33381V9.27415C307.619 8.53835 307.418 7.96662 307.015 7.55895C306.617 7.15128 306.013 6.94744 305.203 6.94744C304.363 6.94744 303.704 7.13139 303.227 7.49929C302.749 7.86719 302.414 8.25994 302.22 8.67756L300.549 8.08097C300.848 7.38494 301.245 6.84304 301.743 6.45526C302.245 6.0625 302.792 5.78906 303.383 5.63494C303.98 5.47585 304.566 5.39631 305.143 5.39631C305.511 5.39631 305.934 5.44105 306.411 5.53054C306.893 5.61506 307.358 5.79155 307.805 6.06001C308.258 6.32848 308.633 6.73366 308.932 7.27557C309.23 7.81747 309.379 8.54332 309.379 9.45312V17H307.619V15.4489H307.53C307.41 15.6974 307.211 15.9634 306.933 16.2468C306.655 16.5302 306.284 16.7713 305.822 16.9702C305.359 17.169 304.795 17.2685 304.129 17.2685ZM304.397 15.6875C305.093 15.6875 305.68 15.5508 306.157 15.2773C306.64 15.0039 307.003 14.6509 307.246 14.2184C307.495 13.7859 307.619 13.331 307.619 12.8537V11.2429C307.544 11.3324 307.38 11.4144 307.127 11.489C306.878 11.5586 306.59 11.6207 306.262 11.6754C305.939 11.7251 305.623 11.7699 305.315 11.8097C305.011 11.8445 304.765 11.8743 304.576 11.8991C304.119 11.9588 303.691 12.0558 303.294 12.19C302.901 12.3192 302.583 12.5156 302.339 12.7791C302.101 13.0376 301.981 13.3906 301.981 13.8381C301.981 14.4496 302.207 14.9119 302.66 15.2251C303.117 15.5334 303.696 15.6875 304.397 15.6875ZM304.457 3.99432L306.277 0.53409H308.335L306.008 3.99432H304.457ZM323.151 17.2386C322.077 17.2386 321.152 16.9851 320.377 16.478C319.601 15.9709 319.005 15.2724 318.587 14.3825C318.169 13.4925 317.961 12.4759 317.961 11.3324C317.961 10.169 318.174 9.1424 318.602 8.25249C319.034 7.3576 319.636 6.65909 320.407 6.15696C321.182 5.64986 322.087 5.39631 323.121 5.39631C323.926 5.39631 324.652 5.54545 325.299 5.84375C325.945 6.14205 326.474 6.55966 326.887 7.09659C327.3 7.63352 327.556 8.25994 327.655 8.97585H325.895C325.761 8.45383 325.463 7.99148 325 7.58878C324.543 7.18111 323.926 6.97727 323.151 6.97727C322.465 6.97727 321.863 7.15625 321.346 7.5142C320.834 7.86719 320.434 8.36683 320.146 9.01314C319.862 9.65447 319.721 10.4077 319.721 11.2727C319.721 12.1577 319.86 12.9283 320.138 13.5845C320.422 14.2408 320.819 14.7504 321.331 15.1133C321.848 15.4762 322.455 15.6577 323.151 15.6577C323.608 15.6577 324.023 15.5781 324.396 15.419C324.769 15.2599 325.085 15.0312 325.343 14.733C325.602 14.4347 325.786 14.0767 325.895 13.6591H327.655C327.556 14.3352 327.31 14.9442 326.917 15.4862C326.529 16.0231 326.015 16.4506 325.373 16.7688C324.737 17.082 323.996 17.2386 323.151 17.2386ZM334.881 17.2386C333.847 17.2386 332.94 16.9925 332.159 16.5004C331.384 16.0082 330.777 15.3196 330.34 14.4347C329.907 13.5497 329.691 12.5156 329.691 11.3324C329.691 10.1392 329.907 9.09766 330.34 8.20774C330.777 7.31783 331.384 6.62678 332.159 6.13459C332.94 5.6424 333.847 5.39631 334.881 5.39631C335.915 5.39631 336.82 5.6424 337.596 6.13459C338.376 6.62678 338.983 7.31783 339.415 8.20774C339.853 9.09766 340.072 10.1392 340.072 11.3324C340.072 12.5156 339.853 13.5497 339.415 14.4347C338.983 15.3196 338.376 16.0082 337.596 16.5004C336.82 16.9925 335.915 17.2386 334.881 17.2386ZM334.881 15.6577C335.667 15.6577 336.313 15.4563 336.82 15.0536C337.327 14.6509 337.703 14.1214 337.946 13.4652C338.19 12.8089 338.312 12.098 338.312 11.3324C338.312 10.5668 338.19 9.85334 337.946 9.19212C337.703 8.53089 337.327 7.99645 336.82 7.58878C336.313 7.18111 335.667 6.97727 334.881 6.97727C334.096 6.97727 333.45 7.18111 332.942 7.58878C332.435 7.99645 332.06 8.53089 331.816 9.19212C331.573 9.85334 331.451 10.5668 331.451 11.3324C331.451 12.098 331.573 12.8089 331.816 13.4652C332.06 14.1214 332.435 14.6509 332.942 15.0536C333.45 15.4563 334.096 15.6577 334.881 15.6577ZM342.758 17V5.54545H344.459V7.33523H344.608C344.846 6.72372 345.232 6.24893 345.764 5.91087C346.296 5.56783 346.934 5.39631 347.68 5.39631C348.436 5.39631 349.065 5.56783 349.567 5.91087C350.074 6.24893 350.469 6.72372 350.753 7.33523H350.872C351.165 6.74361 351.605 6.27379 352.192 5.92578C352.778 5.5728 353.482 5.39631 354.302 5.39631C355.326 5.39631 356.164 5.71697 356.815 6.35831C357.467 6.99467 357.792 7.98651 357.792 9.33381V17H356.032V9.33381C356.032 8.48864 355.801 7.88459 355.339 7.52166C354.877 7.15874 354.332 6.97727 353.706 6.97727C352.9 6.97727 352.276 7.22088 351.834 7.7081C351.391 8.19034 351.17 8.80185 351.17 9.54261V17H349.38V9.15483C349.38 8.50355 349.169 7.97905 348.747 7.58132C348.324 7.17862 347.78 6.97727 347.113 6.97727C346.656 6.97727 346.228 7.09908 345.831 7.34268C345.438 7.58629 345.12 7.92436 344.876 8.35689C344.638 8.78445 344.518 9.27912 344.518 9.84091V17H342.758ZM6.59233 30.5455V32.0369H0.65625V30.5455H6.59233ZM2.38636 27.8011H4.14631V38.7188C4.14631 39.2159 4.2184 39.5888 4.36257 39.8374C4.51172 40.081 4.70064 40.245 4.92933 40.3295C5.163 40.4091 5.40909 40.4489 5.66761 40.4489C5.86151 40.4489 6.0206 40.4389 6.14489 40.419C6.26918 40.3942 6.36861 40.3743 6.44318 40.3594L6.80114 41.9403C6.68182 41.9851 6.51527 42.0298 6.30149 42.0746C6.08771 42.1243 5.81676 42.1491 5.48864 42.1491C4.99148 42.1491 4.50426 42.0423 4.02699 41.8285C3.55469 41.6147 3.16193 41.2891 2.84872 40.8516C2.54048 40.4141 2.38636 39.8622 2.38636 39.196V27.8011ZM13.7701 42.2386C12.736 42.2386 11.8287 41.9925 11.0481 41.5004C10.2725 41.0082 9.66602 40.3196 9.22852 39.4347C8.79599 38.5497 8.57972 37.5156 8.57972 36.3324C8.57972 35.1392 8.79599 34.0977 9.22852 33.2077C9.66602 32.3178 10.2725 31.6268 11.0481 31.1346C11.8287 30.6424 12.736 30.3963 13.7701 30.3963C14.8042 30.3963 15.709 30.6424 16.4846 31.1346C17.2651 31.6268 17.8716 32.3178 18.3042 33.2077C18.7417 34.0977 18.9604 35.1392 18.9604 36.3324C18.9604 37.5156 18.7417 38.5497 18.3042 39.4347C17.8716 40.3196 17.2651 41.0082 16.4846 41.5004C15.709 41.9925 14.8042 42.2386 13.7701 42.2386ZM13.7701 40.6577C14.5556 40.6577 15.2019 40.4563 15.709 40.0536C16.2161 39.6509 16.5914 39.1214 16.8351 38.4652C17.0787 37.8089 17.2005 37.098 17.2005 36.3324C17.2005 35.5668 17.0787 34.8533 16.8351 34.1921C16.5914 33.5309 16.2161 32.9964 15.709 32.5888C15.2019 32.1811 14.5556 31.9773 13.7701 31.9773C12.9846 31.9773 12.3382 32.1811 11.8311 32.5888C11.324 32.9964 10.9487 33.5309 10.7051 34.1921C10.4615 34.8533 10.3397 35.5668 10.3397 36.3324C10.3397 37.098 10.4615 37.8089 10.7051 38.4652C10.9487 39.1214 11.324 39.6509 11.8311 40.0536C12.3382 40.4563 12.9846 40.6577 13.7701 40.6577ZM25.9722 42.2386C25.0177 42.2386 24.175 41.9975 23.4442 41.5153C22.7133 41.0281 22.1416 40.342 21.729 39.457C21.3163 38.5671 21.11 37.5156 21.11 36.3026C21.11 35.0994 21.3163 34.0554 21.729 33.1705C22.1416 32.2855 22.7158 31.6019 23.4516 31.1197C24.1874 30.6374 25.0376 30.3963 26.002 30.3963C26.7478 30.3963 27.3369 30.5206 27.7694 30.7692C28.2069 31.0128 28.54 31.2912 28.7687 31.6044C29.0024 31.9126 29.1839 32.1662 29.3131 32.3651H29.4623V26.7273H31.2222V42H29.5219V40.2401H29.3131C29.1839 40.4489 28.9999 40.7124 28.7613 41.0305C28.5226 41.3437 28.1821 41.6246 27.7396 41.8732C27.2971 42.1168 26.708 42.2386 25.9722 42.2386ZM26.2108 40.6577C26.9168 40.6577 27.5134 40.4737 28.0006 40.1058C28.4878 39.733 28.8582 39.2184 29.1118 38.5621C29.3653 37.9009 29.4921 37.1378 29.4921 36.2727C29.4921 35.4176 29.3678 34.6694 29.1192 34.0281C28.8707 33.3817 28.5028 32.8796 28.0155 32.5217C27.5283 32.1587 26.9268 31.9773 26.2108 31.9773C25.4651 31.9773 24.8437 32.1687 24.3465 32.5515C23.8543 32.9293 23.4839 33.4439 23.2354 34.0952C22.9917 34.7415 22.8699 35.4673 22.8699 36.2727C22.8699 37.0881 22.9942 37.8288 23.2428 38.495C23.4964 39.1562 23.8692 39.6832 24.3614 40.076C24.8586 40.4638 25.4751 40.6577 26.2108 40.6577ZM38.0606 42.2685C37.3348 42.2685 36.676 42.1317 36.0844 41.8583C35.4928 41.5799 35.023 41.1797 34.675 40.6577C34.327 40.1307 34.153 39.4943 34.153 38.7486C34.153 38.0923 34.2822 37.5604 34.5407 37.1527C34.7993 36.7401 35.1448 36.4169 35.5773 36.1832C36.0099 35.9496 36.4871 35.7756 37.0091 35.6612C37.5361 35.5419 38.0656 35.4474 38.5976 35.3778C39.2936 35.2884 39.8579 35.2212 40.2904 35.1765C40.7279 35.1268 41.0461 35.0447 41.2449 34.9304C41.4488 34.8161 41.5507 34.6172 41.5507 34.3338V34.2741C41.5507 33.5384 41.3493 32.9666 40.9466 32.5589C40.5489 32.1513 39.9449 31.9474 39.1345 31.9474C38.2943 31.9474 37.6356 32.1314 37.1583 32.4993C36.681 32.8672 36.3454 33.2599 36.1515 33.6776L34.4811 33.081C34.7794 32.3849 35.1771 31.843 35.6743 31.4553C36.1764 31.0625 36.7233 30.7891 37.3149 30.6349C37.9115 30.4759 38.4981 30.3963 39.0748 30.3963C39.4427 30.3963 39.8653 30.4411 40.3426 30.5305C40.8248 30.6151 41.2897 30.7915 41.7371 31.06C42.1895 31.3285 42.5649 31.7337 42.8632 32.2756C43.1615 32.8175 43.3106 33.5433 43.3106 34.4531V42H41.5507V40.4489H41.4612C41.3419 40.6974 41.143 40.9634 40.8646 41.2468C40.5862 41.5302 40.2158 41.7713 39.7535 41.9702C39.2911 42.169 38.7268 42.2685 38.0606 42.2685ZM38.3291 40.6875C39.0251 40.6875 39.6118 40.5508 40.089 40.2773C40.5713 40.0039 40.9342 39.6509 41.1778 39.2184C41.4264 38.7859 41.5507 38.331 41.5507 37.8537V36.2429C41.4761 36.3324 41.3121 36.4144 41.0585 36.489C40.8099 36.5586 40.5216 36.6207 40.1934 36.6754C39.8703 36.7251 39.5546 36.7699 39.2464 36.8097C38.9431 36.8445 38.697 36.8743 38.5081 36.8991C38.0507 36.9588 37.6231 37.0558 37.2254 37.19C36.8327 37.3192 36.5145 37.5156 36.2709 37.7791C36.0322 38.0376 35.9129 38.3906 35.9129 38.8381C35.9129 39.4496 36.1391 39.9119 36.5915 40.2251C37.0489 40.5334 37.6281 40.6875 38.3291 40.6875ZM55.7999 42.2685C55.074 42.2685 54.4153 42.1317 53.8237 41.8583C53.2321 41.5799 52.7623 41.1797 52.4142 40.6577C52.0662 40.1307 51.8922 39.4943 51.8922 38.7486C51.8922 38.0923 52.0215 37.5604 52.28 37.1527C52.5385 36.7401 52.8841 36.4169 53.3166 36.1832C53.7491 35.9496 54.2264 35.7756 54.7484 35.6612C55.2754 35.5419 55.8049 35.4474 56.3368 35.3778C57.0328 35.2884 57.5971 35.2212 58.0297 35.1765C58.4672 35.1268 58.7853 35.0447 58.9842 34.9304C59.188 34.8161 59.29 34.6172 59.29 34.3338V34.2741C59.29 33.5384 59.0886 32.9666 58.6859 32.5589C58.2882 32.1513 57.6841 31.9474 56.8738 31.9474C56.0336 31.9474 55.3748 32.1314 54.8975 32.4993C54.4203 32.8672 54.0847 33.2599 53.8908 33.6776L52.2203 33.081C52.5186 32.3849 52.9164 31.843 53.4135 31.4553C53.9157 31.0625 54.4625 30.7891 55.0542 30.6349C55.6507 30.4759 56.2374 30.3963 56.8141 30.3963C57.182 30.3963 57.6046 30.4411 58.0819 30.5305C58.5641 30.6151 59.0289 30.7915 59.4764 31.06C59.9288 31.3285 60.3042 31.7337 60.6025 32.2756C60.9007 32.8175 61.0499 33.5433 61.0499 34.4531V42H59.29V40.4489H59.2005C59.0811 40.6974 58.8823 40.9634 58.6039 41.2468C58.3255 41.5302 57.9551 41.7713 57.4927 41.9702C57.0304 42.169 56.4661 42.2685 55.7999 42.2685ZM56.0684 40.6875C56.7644 40.6875 57.351 40.5508 57.8283 40.2773C58.3105 40.0039 58.6735 39.6509 58.9171 39.2184C59.1657 38.7859 59.29 38.331 59.29 37.8537V36.2429C59.2154 36.3324 59.0513 36.4144 58.7978 36.489C58.5492 36.5586 58.2608 36.6207 57.9327 36.6754C57.6096 36.7251 57.2939 36.7699 56.9856 36.8097C56.6824 36.8445 56.4363 36.8743 56.2473 36.8991C55.79 36.9588 55.3624 37.0558 54.9647 37.19C54.5719 37.3192 54.2537 37.5156 54.0101 37.7791C53.7715 38.0376 53.6522 38.3906 53.6522 38.8381C53.6522 39.4496 53.8784 39.9119 54.3308 40.2251C54.7882 40.5334 55.3674 40.6875 56.0684 40.6875ZM75.1499 30.5455V32.0369H69.2139V30.5455H75.1499ZM70.944 27.8011H72.7039V38.7188C72.7039 39.2159 72.776 39.5888 72.9202 39.8374C73.0693 40.081 73.2583 40.245 73.4869 40.3295C73.7206 40.4091 73.9667 40.4489 74.2252 40.4489C74.4191 40.4489 74.5782 40.4389 74.7025 40.419C74.8268 40.3942 74.9262 40.3743 75.0008 40.3594L75.3588 41.9403C75.2394 41.9851 75.0729 42.0298 74.8591 42.0746C74.6453 42.1243 74.3744 42.1491 74.0463 42.1491C73.5491 42.1491 73.0619 42.0423 72.5846 41.8285C72.1123 41.6147 71.7195 41.2891 71.4063 40.8516C71.0981 40.4141 70.944 39.8622 70.944 39.196V27.8011ZM82.4768 42.2386C81.3731 42.2386 80.4211 41.995 79.6206 41.5078C78.8252 41.0156 78.2112 40.3295 77.7787 39.4496C77.3511 38.5646 77.1373 37.5355 77.1373 36.3622C77.1373 35.1889 77.3511 34.1548 77.7787 33.2599C78.2112 32.3601 78.8128 31.6591 79.5834 31.157C80.3589 30.6499 81.2638 30.3963 82.2979 30.3963C82.8944 30.3963 83.4836 30.4957 84.0653 30.6946C84.6469 30.8935 85.1764 31.2166 85.6537 31.6641C86.1309 32.1065 86.5113 32.6932 86.7947 33.424C87.078 34.1548 87.2197 35.0547 87.2197 36.1236V36.8693H78.3902V35.348H85.43C85.43 34.7017 85.3007 34.125 85.0422 33.6179C84.7886 33.1108 84.4257 32.7106 83.9534 32.4173C83.4861 32.1239 82.9342 31.9773 82.2979 31.9773C81.5969 31.9773 80.9903 32.1513 80.4782 32.4993C79.9711 32.8423 79.5809 33.2898 79.3074 33.8416C79.034 34.3935 78.8973 34.9851 78.8973 35.6165V36.6307C78.8973 37.4957 79.0464 38.229 79.3447 38.8306C79.648 39.4272 80.0681 39.8821 80.605 40.1953C81.142 40.5036 81.7659 40.6577 82.4768 40.6577C82.9392 40.6577 83.3568 40.593 83.7297 40.4638C84.1075 40.3295 84.4332 40.1307 84.7066 39.8672C84.98 39.5987 85.1913 39.2656 85.3405 38.8679L87.0408 39.3452C86.8618 39.9219 86.561 40.429 86.1384 40.8665C85.7158 41.299 85.1938 41.6371 84.5724 41.8807C83.9509 42.1193 83.2524 42.2386 82.4768 42.2386ZM91.6569 35.1094V42H89.8969V30.5455H91.5972V32.3352H91.7464C92.0148 31.7536 92.4225 31.2862 92.9694 30.9332C93.5162 30.5753 94.2222 30.3963 95.0873 30.3963C95.8628 30.3963 96.5415 30.5554 97.1231 30.8736C97.7048 31.1868 98.1572 31.6641 98.4804 32.3054C98.8035 32.9418 98.9651 33.7472 98.9651 34.7216V42H97.2052V34.8409C97.2052 33.9411 96.9715 33.2401 96.5042 32.7379C96.0368 32.2308 95.3955 31.9773 94.5802 31.9773C94.0184 31.9773 93.5162 32.0991 93.0738 32.3427C92.6363 32.5863 92.2907 32.9418 92.0372 33.4091C91.7836 33.8764 91.6569 34.4432 91.6569 35.1094ZM110.295 33.1108L108.714 33.5582C108.614 33.2947 108.468 33.0387 108.274 32.7901C108.085 32.5366 107.826 32.3278 107.498 32.1637C107.17 31.9996 106.75 31.9176 106.238 31.9176C105.537 31.9176 104.953 32.0792 104.485 32.4023C104.023 32.7205 103.792 33.1257 103.792 33.6179C103.792 34.0554 103.951 34.4009 104.269 34.6545C104.587 34.908 105.085 35.1193 105.761 35.2884L107.461 35.706C108.485 35.9545 109.248 36.3349 109.75 36.8469C110.252 37.354 110.504 38.0078 110.504 38.8082C110.504 39.4645 110.315 40.0511 109.937 40.5682C109.564 41.0852 109.042 41.4929 108.371 41.7912C107.7 42.0895 106.919 42.2386 106.029 42.2386C104.861 42.2386 103.894 41.9851 103.128 41.478C102.363 40.9709 101.878 40.2301 101.674 39.2557L103.344 38.8381C103.504 39.4545 103.804 39.9169 104.247 40.2251C104.694 40.5334 105.278 40.6875 105.999 40.6875C106.82 40.6875 107.471 40.5135 107.953 40.1655C108.44 39.8125 108.684 39.3899 108.684 38.8977C108.684 38.5 108.545 38.1669 108.266 37.8984C107.988 37.625 107.56 37.4212 106.984 37.2869L105.075 36.8395C104.026 36.5909 103.255 36.2056 102.763 35.6836C102.276 35.1566 102.032 34.4979 102.032 33.7074C102.032 33.0611 102.213 32.4893 102.576 31.9922C102.944 31.495 103.444 31.1048 104.075 30.8214C104.712 30.538 105.433 30.3963 106.238 30.3963C107.371 30.3963 108.261 30.6449 108.908 31.142C109.559 31.6392 110.021 32.2955 110.295 33.1108ZM116.524 42.2685C115.798 42.2685 115.139 42.1317 114.547 41.8583C113.956 41.5799 113.486 41.1797 113.138 40.6577C112.79 40.1307 112.616 39.4943 112.616 38.7486C112.616 38.0923 112.745 37.5604 113.004 37.1527C113.262 36.7401 113.608 36.4169 114.04 36.1832C114.473 35.9496 114.95 35.7756 115.472 35.6612C115.999 35.5419 116.528 35.4474 117.06 35.3778C117.756 35.2884 118.321 35.2212 118.753 35.1765C119.191 35.1268 119.509 35.0447 119.708 34.9304C119.912 34.8161 120.014 34.6172 120.014 34.3338V34.2741C120.014 33.5384 119.812 32.9666 119.41 32.5589C119.012 32.1513 118.408 31.9474 117.597 31.9474C116.757 31.9474 116.098 32.1314 115.621 32.4993C115.144 32.8672 114.808 33.2599 114.614 33.6776L112.944 33.081C113.242 32.3849 113.64 31.843 114.137 31.4553C114.639 31.0625 115.186 30.7891 115.778 30.6349C116.374 30.4759 116.961 30.3963 117.538 30.3963C117.906 30.3963 118.328 30.4411 118.805 30.5305C119.288 30.6151 119.753 30.7915 120.2 31.06C120.652 31.3285 121.028 31.7337 121.326 32.2756C121.624 32.8175 121.774 33.5433 121.774 34.4531V42H120.014V40.4489H119.924C119.805 40.6974 119.606 40.9634 119.328 41.2468C119.049 41.5302 118.679 41.7713 118.216 41.9702C117.754 42.169 117.19 42.2685 116.524 42.2685ZM116.792 40.6875C117.488 40.6875 118.075 40.5508 118.552 40.2773C119.034 40.0039 119.397 39.6509 119.641 39.2184C119.889 38.7859 120.014 38.331 120.014 37.8537V36.2429C119.939 36.3324 119.775 36.4144 119.521 36.489C119.273 36.5586 118.984 36.6207 118.656 36.6754C118.333 36.7251 118.017 36.7699 117.709 36.8097C117.406 36.8445 117.16 36.8743 116.971 36.8991C116.514 36.9588 116.086 37.0558 115.688 37.19C115.296 37.3192 114.977 37.5156 114.734 37.7791C114.495 38.0376 114.376 38.3906 114.376 38.8381C114.376 39.4496 114.602 39.9119 115.054 40.2251C115.512 40.5334 116.091 40.6875 116.792 40.6875ZM115.36 29.1733L113.988 29.1136C113.988 28.353 114.204 27.7315 114.637 27.2493C115.074 26.7621 115.614 26.5185 116.255 26.5185C116.538 26.5185 116.79 26.5682 117.008 26.6676C117.227 26.7621 117.436 26.8714 117.635 26.9957C117.834 27.12 118.037 27.2319 118.246 27.3313C118.46 27.4258 118.701 27.473 118.97 27.473C119.253 27.473 119.492 27.3636 119.685 27.1449C119.884 26.9212 119.984 26.6527 119.984 26.3395L121.326 26.4588C121.326 27.2344 121.107 27.8509 120.67 28.3082C120.237 28.7656 119.7 28.9943 119.059 28.9943C118.716 28.9943 118.433 28.9471 118.209 28.8526C117.985 28.7532 117.786 28.6413 117.612 28.517C117.438 28.3928 117.254 28.2834 117.06 28.1889C116.867 28.0895 116.628 28.0398 116.345 28.0398C116.061 28.0398 115.825 28.1516 115.636 28.3754C115.452 28.5941 115.36 28.8601 115.36 29.1733ZM129.639 42.2386C128.605 42.2386 127.698 41.9925 126.917 41.5004C126.142 41.0082 125.535 40.3196 125.098 39.4347C124.665 38.5497 124.449 37.5156 124.449 36.3324C124.449 35.1392 124.665 34.0977 125.098 33.2077C125.535 32.3178 126.142 31.6268 126.917 31.1346C127.698 30.6424 128.605 30.3963 129.639 30.3963C130.673 30.3963 131.578 30.6424 132.354 31.1346C133.134 31.6268 133.741 32.3178 134.173 33.2077C134.611 34.0977 134.83 35.1392 134.83 36.3324C134.83 37.5156 134.611 38.5497 134.173 39.4347C133.741 40.3196 133.134 41.0082 132.354 41.5004C131.578 41.9925 130.673 42.2386 129.639 42.2386ZM129.639 40.6577C130.425 40.6577 131.071 40.4563 131.578 40.0536C132.085 39.6509 132.461 39.1214 132.704 38.4652C132.948 37.8089 133.07 37.098 133.07 36.3324C133.07 35.5668 132.948 34.8533 132.704 34.1921C132.461 33.5309 132.085 32.9964 131.578 32.5888C131.071 32.1811 130.425 31.9773 129.639 31.9773C128.854 31.9773 128.207 32.1811 127.7 32.5888C127.193 32.9964 126.818 33.5309 126.574 34.1921C126.331 34.8533 126.209 35.5668 126.209 36.3324C126.209 37.098 126.331 37.8089 126.574 38.4652C126.818 39.1214 127.193 39.6509 127.7 40.0536C128.207 40.4563 128.854 40.6577 129.639 40.6577ZM151.238 46.2955V40.2401H151.089C150.959 40.4489 150.775 40.7124 150.537 41.0305C150.298 41.3437 149.957 41.6246 149.515 41.8732C149.073 42.1168 148.483 42.2386 147.748 42.2386C146.793 42.2386 145.95 41.9975 145.22 41.5153C144.489 41.0281 143.917 40.342 143.504 39.457C143.092 38.5671 142.885 37.5156 142.885 36.3026C142.885 35.0994 143.092 34.0554 143.504 33.1705C143.917 32.2855 144.491 31.6019 145.227 31.1197C145.963 30.6374 146.813 30.3963 147.777 30.3963C148.523 30.3963 149.112 30.5206 149.545 30.7692C149.982 31.0128 150.315 31.2912 150.544 31.6044C150.778 31.9126 150.959 32.1662 151.089 32.3651H151.297V30.5455H152.998V46.2955H151.238ZM147.986 40.6577C148.692 40.6577 149.289 40.4737 149.776 40.1058C150.263 39.733 150.634 39.2184 150.887 38.5621C151.141 37.9009 151.267 37.1378 151.267 36.2727C151.267 35.4176 151.143 34.6694 150.895 34.0281C150.646 33.3817 150.278 32.8796 149.791 32.5217C149.304 32.1587 148.702 31.9773 147.986 31.9773C147.241 31.9773 146.619 32.1687 146.122 32.5515C145.63 32.9293 145.259 33.4439 145.011 34.0952C144.767 34.7415 144.645 35.4673 144.645 36.2727C144.645 37.0881 144.77 37.8288 145.018 38.495C145.272 39.1562 145.645 39.6832 146.137 40.076C146.634 40.4638 147.25 40.6577 147.986 40.6577ZM163.438 37.3168V30.5455H165.198V42H163.438V40.0611H163.319C163.05 40.6428 162.633 41.1374 162.066 41.5451C161.499 41.9478 160.783 42.1491 159.918 42.1491C159.202 42.1491 158.566 41.9925 158.009 41.6793C157.452 41.3612 157.015 40.8839 156.696 40.2475C156.378 39.6062 156.219 38.7983 156.219 37.8239V30.5455H157.979V37.7045C157.979 38.5398 158.213 39.206 158.68 39.7031C159.152 40.2003 159.754 40.4489 160.485 40.4489C160.922 40.4489 161.367 40.337 161.82 40.1133C162.277 39.8896 162.66 39.5465 162.968 39.0842C163.281 38.6218 163.438 38.0327 163.438 37.3168ZM173.224 42.2386C172.12 42.2386 171.168 41.995 170.368 41.5078C169.572 41.0156 168.958 40.3295 168.526 39.4496C168.098 38.5646 167.884 37.5355 167.884 36.3622C167.884 35.1889 168.098 34.1548 168.526 33.2599C168.958 32.3601 169.56 31.6591 170.33 31.157C171.106 30.6499 172.011 30.3963 173.045 30.3963C173.642 30.3963 174.231 30.4957 174.812 30.6946C175.394 30.8935 175.923 31.2166 176.401 31.6641C176.878 32.1065 177.258 32.6932 177.542 33.424C177.825 34.1548 177.967 35.0547 177.967 36.1236V36.8693H169.137V35.348H176.177C176.177 34.7017 176.048 34.125 175.789 33.6179C175.536 33.1108 175.173 32.7106 174.7 32.4173C174.233 32.1239 173.681 31.9773 173.045 31.9773C172.344 31.9773 171.737 32.1513 171.225 32.4993C170.718 32.8423 170.328 33.2898 170.055 33.8416C169.781 34.3935 169.644 34.9851 169.644 35.6165V36.6307C169.644 37.4957 169.794 38.229 170.092 38.8306C170.395 39.4272 170.815 39.8821 171.352 40.1953C171.889 40.5036 172.513 40.6577 173.224 40.6577C173.686 40.6577 174.104 40.593 174.477 40.4638C174.855 40.3295 175.18 40.1307 175.454 39.8672C175.727 39.5987 175.938 39.2656 176.088 38.8679L177.788 39.3452C177.609 39.9219 177.308 40.429 176.885 40.8665C176.463 41.299 175.941 41.6371 175.319 41.8807C174.698 42.1193 173.999 42.2386 173.224 42.2386ZM191.353 42.2386C190.249 42.2386 189.297 41.995 188.497 41.5078C187.701 41.0156 187.087 40.3295 186.655 39.4496C186.227 38.5646 186.013 37.5355 186.013 36.3622C186.013 35.1889 186.227 34.1548 186.655 33.2599C187.087 32.3601 187.689 31.6591 188.459 31.157C189.235 30.6499 190.14 30.3963 191.174 30.3963C191.77 30.3963 192.36 30.4957 192.941 30.6946C193.523 30.8935 194.052 31.2166 194.53 31.6641C195.007 32.1065 195.387 32.6932 195.671 33.424C195.954 34.1548 196.096 35.0547 196.096 36.1236V36.8693H187.266V35.348H194.306C194.306 34.7017 194.177 34.125 193.918 33.6179C193.665 33.1108 193.302 32.7106 192.829 32.4173C192.362 32.1239 191.81 31.9773 191.174 31.9773C190.473 31.9773 189.866 32.1513 189.354 32.4993C188.847 32.8423 188.457 33.2898 188.183 33.8416C187.91 34.3935 187.773 34.9851 187.773 35.6165V36.6307C187.773 37.4957 187.922 38.229 188.221 38.8306C188.524 39.4272 188.944 39.8821 189.481 40.1953C190.018 40.5036 190.642 40.6577 191.353 40.6577C191.815 40.6577 192.233 40.593 192.606 40.4638C192.983 40.3295 193.309 40.1307 193.583 39.8672C193.856 39.5987 194.067 39.2656 194.216 38.8679L195.917 39.3452C195.738 39.9219 195.437 40.429 195.014 40.8665C194.592 41.299 194.07 41.6371 193.448 41.8807C192.827 42.1193 192.128 42.2386 191.353 42.2386ZM206.887 33.1108L205.306 33.5582C205.206 33.2947 205.059 33.0387 204.866 32.7901C204.677 32.5366 204.418 32.3278 204.09 32.1637C203.762 31.9996 203.342 31.9176 202.83 31.9176C202.129 31.9176 201.545 32.0792 201.077 32.4023C200.615 32.7205 200.384 33.1257 200.384 33.6179C200.384 34.0554 200.543 34.4009 200.861 34.6545C201.179 34.908 201.676 35.1193 202.352 35.2884L204.053 35.706C205.077 35.9545 205.84 36.3349 206.342 36.8469C206.844 37.354 207.095 38.0078 207.095 38.8082C207.095 39.4645 206.906 40.0511 206.529 40.5682C206.156 41.0852 205.634 41.4929 204.963 41.7912C204.291 42.0895 203.511 42.2386 202.621 42.2386C201.453 42.2386 200.486 41.9851 199.72 41.478C198.954 40.9709 198.47 40.2301 198.266 39.2557L199.936 38.8381C200.095 39.4545 200.396 39.9169 200.839 40.2251C201.286 40.5334 201.87 40.6875 202.591 40.6875C203.411 40.6875 204.063 40.5135 204.545 40.1655C205.032 39.8125 205.276 39.3899 205.276 38.8977C205.276 38.5 205.137 38.1669 204.858 37.8984C204.58 37.625 204.152 37.4212 203.575 37.2869L201.666 36.8395C200.617 36.5909 199.847 36.2056 199.355 35.6836C198.867 35.1566 198.624 34.4979 198.624 33.7074C198.624 33.0611 198.805 32.4893 199.168 31.9922C199.536 31.495 200.036 31.1048 200.667 30.8214C201.303 30.538 202.024 30.3963 202.83 30.3963C203.963 30.3963 204.853 30.6449 205.499 31.142C206.151 31.6392 206.613 32.2955 206.887 33.1108ZM214.726 30.5455V32.0369H208.79V30.5455H214.726ZM210.52 27.8011H212.28V38.7188C212.28 39.2159 212.352 39.5888 212.496 39.8374C212.646 40.081 212.834 40.245 213.063 40.3295C213.297 40.4091 213.543 40.4489 213.801 40.4489C213.995 40.4489 214.154 40.4389 214.279 40.419C214.403 40.3942 214.502 40.3743 214.577 40.3594L214.935 41.9403C214.816 41.9851 214.649 42.0298 214.435 42.0746C214.222 42.1243 213.951 42.1491 213.622 42.1491C213.125 42.1491 212.638 42.0423 212.161 41.8285C211.688 41.6147 211.296 41.2891 210.983 40.8516C210.674 40.4141 210.52 39.8622 210.52 39.196V27.8011ZM220.744 42.2685C220.018 42.2685 219.36 42.1317 218.768 41.8583C218.176 41.5799 217.707 41.1797 217.359 40.6577C217.011 40.1307 216.837 39.4943 216.837 38.7486C216.837 38.0923 216.966 37.5604 217.224 37.1527C217.483 36.7401 217.828 36.4169 218.261 36.1832C218.693 35.9496 219.171 35.7756 219.693 35.6612C220.22 35.5419 220.749 35.4474 221.281 35.3778C221.977 35.2884 222.541 35.2212 222.974 35.1765C223.411 35.1268 223.73 35.0447 223.929 34.9304C224.132 34.8161 224.234 34.6172 224.234 34.3338V34.2741C224.234 33.5384 224.033 32.9666 223.63 32.5589C223.233 32.1513 222.628 31.9474 221.818 31.9474C220.978 31.9474 220.319 32.1314 219.842 32.4993C219.365 32.8672 219.029 33.2599 218.835 33.6776L217.165 33.081C217.463 32.3849 217.861 31.843 218.358 31.4553C218.86 31.0625 219.407 30.7891 219.998 30.6349C220.595 30.4759 221.182 30.3963 221.758 30.3963C222.126 30.3963 222.549 30.4411 223.026 30.5305C223.508 30.6151 223.973 30.7915 224.421 31.06C224.873 31.3285 225.248 31.7337 225.547 32.2756C225.845 32.8175 225.994 33.5433 225.994 34.4531V42H224.234V40.4489H224.145C224.025 40.6974 223.827 40.9634 223.548 41.2468C223.27 41.5302 222.899 41.7713 222.437 41.9702C221.975 42.169 221.41 42.2685 220.744 42.2685ZM221.013 40.6875C221.709 40.6875 222.295 40.5508 222.773 40.2773C223.255 40.0039 223.618 39.6509 223.861 39.2184C224.11 38.7859 224.234 38.331 224.234 37.8537V36.2429C224.16 36.3324 223.996 36.4144 223.742 36.489C223.494 36.5586 223.205 36.6207 222.877 36.6754C222.554 36.7251 222.238 36.7699 221.93 36.8097C221.627 36.8445 221.381 36.8743 221.192 36.8991C220.734 36.9588 220.307 37.0558 219.909 37.19C219.516 37.3192 219.198 37.5156 218.954 37.7791C218.716 38.0376 218.597 38.3906 218.597 38.8381C218.597 39.4496 218.823 39.9119 219.275 40.2251C219.733 40.5334 220.312 40.6875 221.013 40.6875ZM221.072 28.9943L222.892 25.5341H224.95L222.623 28.9943H221.072ZM235.113 46.2955V30.5455H236.813V32.3651H237.022C237.151 32.1662 237.33 31.9126 237.559 31.6044C237.792 31.2912 238.126 31.0128 238.558 30.7692C238.996 30.5206 239.587 30.3963 240.333 30.3963C241.297 30.3963 242.148 30.6374 242.883 31.1197C243.619 31.6019 244.193 32.2855 244.606 33.1705C245.019 34.0554 245.225 35.0994 245.225 36.3026C245.225 37.5156 245.019 38.5671 244.606 39.457C244.193 40.342 243.622 41.0281 242.891 41.5153C242.16 41.9975 241.317 42.2386 240.363 42.2386C239.627 42.2386 239.038 42.1168 238.595 41.8732C238.153 41.6246 237.812 41.3437 237.574 41.0305C237.335 40.7124 237.151 40.4489 237.022 40.2401H236.873V46.2955H235.113ZM236.843 36.2727C236.843 37.1378 236.97 37.9009 237.223 38.5621C237.477 39.2184 237.847 39.733 238.334 40.1058C238.822 40.4737 239.418 40.6577 240.124 40.6577C240.86 40.6577 241.474 40.4638 241.966 40.076C242.463 39.6832 242.836 39.1562 243.085 38.495C243.338 37.8288 243.465 37.0881 243.465 36.2727C243.465 35.4673 243.341 34.7415 243.092 34.0952C242.849 33.4439 242.478 32.9293 241.981 32.5515C241.489 32.1687 240.87 31.9773 240.124 31.9773C239.408 31.9773 238.807 32.1587 238.319 32.5217C237.832 32.8796 237.464 33.3817 237.216 34.0281C236.967 34.6694 236.843 35.4176 236.843 36.2727ZM252.563 42.2386C251.529 42.2386 250.622 41.9925 249.841 41.5004C249.066 41.0082 248.459 40.3196 248.021 39.4347C247.589 38.5497 247.373 37.5156 247.373 36.3324C247.373 35.1392 247.589 34.0977 248.021 33.2077C248.459 32.3178 249.066 31.6268 249.841 31.1346C250.622 30.6424 251.529 30.3963 252.563 30.3963C253.597 30.3963 254.502 30.6424 255.278 31.1346C256.058 31.6268 256.665 32.3178 257.097 33.2077C257.535 34.0977 257.753 35.1392 257.753 36.3324C257.753 37.5156 257.535 38.5497 257.097 39.4347C256.665 40.3196 256.058 41.0082 255.278 41.5004C254.502 41.9925 253.597 42.2386 252.563 42.2386ZM252.563 40.6577C253.349 40.6577 253.995 40.4563 254.502 40.0536C255.009 39.6509 255.384 39.1214 255.628 38.4652C255.872 37.8089 255.993 37.098 255.993 36.3324C255.993 35.5668 255.872 34.8533 255.628 34.1921C255.384 33.5309 255.009 32.9964 254.502 32.5888C253.995 32.1811 253.349 31.9773 252.563 31.9773C251.778 31.9773 251.131 32.1811 250.624 32.5888C250.117 32.9964 249.742 33.5309 249.498 34.1921C249.254 34.8533 249.133 35.5668 249.133 36.3324C249.133 37.098 249.254 37.8089 249.498 38.4652C249.742 39.1214 250.117 39.6509 250.624 40.0536C251.131 40.4563 251.778 40.6577 252.563 40.6577ZM260.44 42V30.5455H262.14V32.2756H262.259C262.468 31.7088 262.846 31.2489 263.393 30.896C263.94 30.543 264.556 30.3665 265.242 30.3665C265.372 30.3665 265.533 30.369 265.727 30.3739C265.921 30.3789 266.068 30.3864 266.167 30.3963V32.1861C266.108 32.1712 265.971 32.1488 265.757 32.119C265.548 32.0842 265.327 32.0668 265.093 32.0668C264.536 32.0668 264.039 32.1836 263.602 32.4173C263.169 32.646 262.826 32.9641 262.573 33.3718C262.324 33.7745 262.2 34.2344 262.2 34.7514V42H260.44ZM283.526 30.5455L279.29 42H277.501L273.265 30.5455H275.174L278.336 39.6733H278.455L281.617 30.5455H283.526ZM285.849 42V30.5455H287.609V42H285.849ZM286.744 28.6364C286.401 28.6364 286.105 28.5195 285.857 28.2859C285.613 28.0522 285.491 27.7713 285.491 27.4432C285.491 27.1151 285.613 26.8342 285.857 26.6005C286.105 26.3668 286.401 26.25 286.744 26.25C287.087 26.25 287.38 26.3668 287.624 26.6005C287.873 26.8342 287.997 27.1151 287.997 27.4432C287.997 27.7713 287.873 28.0522 287.624 28.2859C287.38 28.5195 287.087 28.6364 286.744 28.6364ZM290.832 42V30.5455H292.533V32.2756H292.652C292.861 31.7088 293.239 31.2489 293.786 30.896C294.332 30.543 294.949 30.3665 295.635 30.3665C295.764 30.3665 295.926 30.369 296.12 30.3739C296.314 30.3789 296.46 30.3864 296.56 30.3963V32.1861C296.5 32.1712 296.363 32.1488 296.15 32.119C295.941 32.0842 295.72 32.0668 295.486 32.0668C294.929 32.0668 294.432 32.1836 293.994 32.4173C293.562 32.646 293.219 32.9641 292.965 33.3718C292.717 33.7745 292.592 34.2344 292.592 34.7514V42H290.832ZM300.973 26.7273L300.824 37.7045H299.093L298.944 26.7273H300.973ZM299.958 42.1193C299.591 42.1193 299.275 41.9876 299.011 41.7241C298.748 41.4606 298.616 41.1449 298.616 40.777C298.616 40.4091 298.748 40.0934 299.011 39.8299C299.275 39.5664 299.591 39.4347 299.958 39.4347C300.326 39.4347 300.642 39.5664 300.906 39.8299C301.169 40.0934 301.301 40.4091 301.301 40.777C301.301 41.0206 301.239 41.2443 301.114 41.4482C300.995 41.652 300.833 41.8161 300.63 41.9403C300.431 42.0597 300.207 42.1193 299.958 42.1193Z" fill="#D9D9D9"/>
</svg>
