<svg width="38" height="30" viewBox="0 0 38 30" fill="none" xmlns="http://www.w3.org/2000/svg">
<path d="M27.1472 6.825C26.7813 6.825 26.4236 6.91297 26.1194 7.0778C25.8152 7.24262 25.5781 7.47689 25.438 7.75097C25.298 8.02506 25.2614 8.32666 25.3328 8.61764C25.4041 8.90861 25.5803 9.17588 25.8391 9.38566C26.0978 9.59544 26.4274 9.7383 26.7863 9.79618C27.1452 9.85406 27.5171 9.82435 27.8552 9.71082C28.1932 9.59729 28.4821 9.40503 28.6854 9.15836C28.8887 8.91168 28.9972 8.62167 28.9972 8.325C28.9972 7.92718 28.8023 7.54564 28.4554 7.26434C28.1084 6.98304 27.6379 6.825 27.1472 6.825ZM34.2389 9.85C34.2089 8.81287 33.9693 7.78675 33.5297 6.8125C33.1377 5.97892 32.5276 5.2241 31.7414 4.6C30.978 3.95928 30.0449 3.46772 29.0126 3.1625C27.8142 2.7952 26.5473 2.59651 25.2664 2.575C23.6322 2.5 23.108 2.5 18.9147 2.5C14.7214 2.5 14.1972 2.5 12.563 2.575C11.2822 2.59651 10.0152 2.7952 8.8168 3.1625C7.78646 3.47081 6.85415 3.96195 6.08805 4.6C5.29783 5.21897 4.69157 5.97555 4.31513 6.8125C3.86213 7.78418 3.61708 8.81144 3.59055 9.85C3.49805 11.175 3.49805 11.6 3.49805 15C3.49805 18.4 3.49805 18.825 3.59055 20.15C3.61708 21.1886 3.86213 22.2158 4.31513 23.1875C4.69157 24.0245 5.29783 24.781 6.08805 25.4C6.85415 26.038 7.78646 26.5292 8.8168 26.8375C10.0152 27.2048 11.2822 27.4035 12.563 27.425C14.1972 27.5 14.7214 27.5 18.9147 27.5C23.108 27.5 23.6322 27.5 25.2664 27.425C26.5473 27.4035 27.8142 27.2048 29.0126 26.8375C30.0449 26.5323 30.978 26.0407 31.7414 25.4C32.5311 24.7782 33.1417 24.0227 33.5297 23.1875C33.9693 22.2132 34.2089 21.1871 34.2389 20.15C34.2389 18.825 34.3314 18.4 34.3314 15C34.3314 11.6 34.3314 11.175 34.2389 9.85ZM31.4639 20C31.4527 20.7935 31.2754 21.5796 30.9397 22.325C30.6936 22.869 30.2982 23.3605 29.7835 23.7625C29.2834 24.1756 28.6784 24.4955 28.0105 24.7C27.0913 24.9722 26.1217 25.1159 25.143 25.125C23.6014 25.1875 23.031 25.2 18.9764 25.2C14.9218 25.2 14.3514 25.2 12.8097 25.125C11.7936 25.1404 10.7818 25.0136 9.81888 24.75C9.18029 24.5351 8.60305 24.216 8.12305 23.8125C7.61135 23.4109 7.22093 22.919 6.98221 22.375C6.60583 21.6189 6.39706 20.8149 6.36555 20C6.36555 18.75 6.27305 18.2875 6.27305 15C6.27305 11.7125 6.27305 11.25 6.36555 10C6.37246 9.18882 6.55509 8.38493 6.90513 7.625C7.17654 7.09739 7.59312 6.62707 8.12305 6.25C8.59143 5.82021 9.17028 5.47887 9.81888 5.25C10.7586 4.97505 11.749 4.83135 12.748 4.825C14.2897 4.825 14.8601 4.75 18.9147 4.75C22.9693 4.75 23.5397 4.75 25.0814 4.825C26.06 4.8341 27.0296 4.97781 27.9489 5.25C28.6495 5.46082 29.2782 5.80356 29.7835 6.25C30.2887 6.63397 30.6834 7.10342 30.9397 7.625C31.2824 8.38617 31.4597 9.18972 31.4639 10C31.541 11.25 31.5564 11.7125 31.5564 15C31.5564 18.2875 31.541 18.75 31.4639 20ZM18.9147 8.5875C17.3512 8.58997 15.8236 8.96816 14.5251 9.67427C13.2265 10.3804 12.2152 11.3827 11.619 12.5547C11.0228 13.7266 10.8683 15.0156 11.1752 16.2587C11.4821 17.5017 12.2366 18.6432 13.3432 19.5387C14.4499 20.4343 15.8591 21.0438 17.3929 21.2902C18.9266 21.5366 20.516 21.4089 21.9602 20.9232C23.4045 20.4375 24.6387 19.6155 25.5071 18.5613C26.3754 17.507 26.8389 16.2677 26.8389 15C26.8409 14.1564 26.6372 13.3208 26.2395 12.5412C25.8418 11.7616 25.258 11.0535 24.5216 10.4576C23.7851 9.86161 22.9106 9.3896 21.9484 9.06866C20.9862 8.74773 19.9552 8.5842 18.9147 8.5875ZM18.9147 19.1625C17.8994 19.1625 16.9068 18.9184 16.0626 18.461C15.2183 18.0036 14.5603 17.3535 14.1717 16.5929C13.7832 15.8323 13.6815 14.9954 13.8796 14.1879C14.0777 13.3805 14.5666 12.6388 15.2846 12.0567C16.0026 11.4745 16.9173 11.0781 17.9132 10.9175C18.909 10.7569 19.9412 10.8393 20.8793 11.1544C21.8174 11.4694 22.6192 12.0029 23.1833 12.6874C23.7474 13.372 24.0485 14.1767 24.0485 15C24.0485 15.5466 23.9157 16.0879 23.6577 16.5929C23.3997 17.0979 23.0215 17.5568 22.5448 17.9433C22.0681 18.3299 21.5022 18.6365 20.8793 18.8456C20.2565 19.0548 19.5889 19.1625 18.9147 19.1625Z" fill="white"/>
</svg>
