<?xml version="1.0" encoding="utf-8"?>
<!-- Generator: Adobe Illustrator 25.0.0, SVG Export Plug-In . SVG Version: 6.00 Build 0)  -->
<svg version="1.1" id="Camada_1" xmlns="http://www.w3.org/2000/svg" xmlns:xlink="http://www.w3.org/1999/xlink" x="0px" y="0px"
	 viewBox="0 0 582 95" style="enable-background:new 0 0 582 95;" xml:space="preserve">
<style type="text/css">
	.st0{fill:#FF4848;}
	.st1{fill:#5B21FF;}
	.st2{fill:#FFFFFF;}
</style>
<path class="st0" d="M62.5,0h473C561.2,0,582,20.8,582,46.5l0,0c0,25.7-20.8,46.5-46.5,46.5h-473C36.8,93,16,72.2,16,46.5l0,0
	C16,20.8,36.8,0,62.5,0z"/>
<path class="st1" d="M46.5,2h473C545.2,2,566,22.8,566,48.5l0,0c0,25.7-20.8,46.5-46.5,46.5h-473C20.8,95,0,74.2,0,48.5l0,0
	C0,22.8,20.8,2,46.5,2z"/>
<path class="st2" d="M10,47.5C10,22.4,30.4,2,55.5,2h471C551.6,2,572,22.4,572,47.5l0,0c0,25.1-20.4,45.5-45.5,45.5h-471
	C30.4,93,10,72.6,10,47.5L10,47.5z"/>
<path d="M74.3,54.7V35.6h12.2v2.9h-8.8v5.2h7.9v2.9h-7.9v8.1H74.3z M93.5,55c-0.9,0-1.7-0.2-2.5-0.5c-0.7-0.3-1.3-0.8-1.7-1.5
	c-0.4-0.6-0.6-1.4-0.6-2.4c0-0.8,0.1-1.5,0.4-2c0.3-0.5,0.7-1,1.2-1.3c0.5-0.3,1.1-0.6,1.7-0.7c0.7-0.2,1.3-0.3,2-0.4
	c0.8-0.1,1.5-0.2,2-0.2c0.5-0.1,0.9-0.2,1.1-0.3c0.2-0.2,0.4-0.4,0.4-0.7V45c0-0.7-0.2-1.2-0.6-1.6c-0.4-0.4-1-0.6-1.8-0.6
	c-0.8,0-1.5,0.2-2,0.5c-0.5,0.4-0.8,0.8-1,1.3l-3.2-0.4c0.2-0.9,0.7-1.6,1.2-2.2c0.6-0.6,1.3-1,2.1-1.3c0.8-0.3,1.7-0.4,2.7-0.4
	c0.7,0,1.4,0.1,2.1,0.2c0.7,0.2,1.3,0.4,1.9,0.8c0.6,0.4,1,0.9,1.4,1.5c0.3,0.6,0.5,1.4,0.5,2.4v9.6h-3.2v-2h-0.1
	c-0.2,0.4-0.5,0.8-0.9,1.1c-0.4,0.3-0.8,0.6-1.4,0.8C94.9,54.9,94.3,55,93.5,55z M94.4,52.5c0.7,0,1.3-0.1,1.8-0.4
	c0.5-0.3,0.9-0.6,1.1-1.1c0.3-0.4,0.4-0.9,0.4-1.5v-1.7c-0.1,0.1-0.3,0.2-0.5,0.2c-0.2,0.1-0.5,0.1-0.8,0.2
	c-0.3,0.1-0.6,0.1-0.9,0.1c-0.3,0-0.6,0.1-0.8,0.1c-0.5,0.1-1,0.2-1.4,0.3s-0.7,0.4-0.9,0.7c-0.2,0.3-0.3,0.6-0.3,1.1
	c0,0.6,0.2,1.1,0.7,1.4C93.1,52.3,93.7,52.5,94.4,52.5z M110.7,55c-1.4,0-2.7-0.3-3.7-0.9c-1-0.6-1.8-1.5-2.4-2.6
	c-0.5-1.1-0.8-2.4-0.8-3.8c0-1.5,0.3-2.7,0.8-3.9c0.6-1.1,1.3-2,2.4-2.6c1-0.6,2.2-0.9,3.6-0.9c1.2,0,2.2,0.2,3.1,0.6
	c0.9,0.4,1.6,1,2.2,1.8c0.5,0.8,0.8,1.7,0.9,2.7h-3.2c-0.1-0.7-0.4-1.3-0.9-1.7c-0.5-0.5-1.1-0.7-2-0.7c-0.7,0-1.3,0.2-1.8,0.6
	c-0.5,0.4-0.9,0.9-1.2,1.6c-0.3,0.7-0.4,1.5-0.4,2.5c0,1,0.1,1.8,0.4,2.5c0.3,0.7,0.7,1.2,1.2,1.6c0.5,0.4,1.1,0.6,1.8,0.6
	c0.5,0,0.9-0.1,1.3-0.3c0.4-0.2,0.7-0.5,1-0.8c0.3-0.4,0.5-0.8,0.6-1.3h3.2c-0.1,1-0.4,1.9-0.9,2.7c-0.5,0.8-1.2,1.4-2.1,1.8
	C113,54.8,111.9,55,110.7,55z M109.8,54.6h1.8l-0.1,0.8c0.6,0.1,1.1,0.3,1.5,0.7c0.4,0.4,0.6,0.9,0.6,1.6c0,0.9-0.4,1.6-1.2,2.1
	c-0.8,0.5-1.9,0.8-3.4,0.8l0-1.7c0.7,0,1.3-0.1,1.7-0.3c0.4-0.2,0.6-0.5,0.6-0.9c0-0.4-0.1-0.7-0.4-0.9c-0.3-0.2-0.8-0.3-1.5-0.4
	L109.8,54.6z M123.8,55c-0.9,0-1.7-0.2-2.5-0.5c-0.7-0.3-1.3-0.8-1.7-1.5c-0.4-0.6-0.6-1.4-0.6-2.4c0-0.8,0.1-1.5,0.4-2
	c0.3-0.5,0.7-1,1.2-1.3c0.5-0.3,1.1-0.6,1.7-0.7c0.7-0.2,1.3-0.3,2-0.4c0.8-0.1,1.5-0.2,2-0.2c0.5-0.1,0.9-0.2,1.1-0.3
	c0.2-0.2,0.4-0.4,0.4-0.7V45c0-0.7-0.2-1.2-0.6-1.6c-0.4-0.4-1-0.6-1.8-0.6c-0.8,0-1.5,0.2-2,0.5c-0.5,0.4-0.8,0.8-1,1.3l-3.2-0.4
	c0.2-0.9,0.7-1.6,1.2-2.2c0.6-0.6,1.3-1,2.1-1.3c0.8-0.3,1.7-0.4,2.7-0.4c0.7,0,1.4,0.1,2.1,0.2c0.7,0.2,1.3,0.4,1.9,0.8
	c0.6,0.4,1,0.9,1.4,1.5c0.3,0.6,0.5,1.4,0.5,2.4v9.6h-3.2v-2H128c-0.2,0.4-0.5,0.8-0.9,1.1c-0.4,0.3-0.8,0.6-1.4,0.8
	C125.2,54.9,124.5,55,123.8,55z M124.6,52.5c0.7,0,1.3-0.1,1.8-0.4c0.5-0.3,0.9-0.6,1.1-1.1c0.3-0.4,0.4-0.9,0.4-1.5v-1.7
	c-0.1,0.1-0.3,0.2-0.5,0.2c-0.2,0.1-0.5,0.1-0.8,0.2c-0.3,0.1-0.6,0.1-0.9,0.1c-0.3,0-0.6,0.1-0.8,0.1c-0.5,0.1-1,0.2-1.4,0.3
	c-0.4,0.2-0.7,0.4-0.9,0.7c-0.2,0.3-0.3,0.6-0.3,1.1c0,0.6,0.2,1.1,0.7,1.4C123.4,52.3,123.9,52.5,124.6,52.5z M144.6,35.6v19.1
	h-3.4V35.6H144.6z M154.4,55c-1.4,0-2.6-0.3-3.6-0.9c-1-0.6-1.8-1.5-2.4-2.6c-0.6-1.1-0.8-2.4-0.8-3.9s0.3-2.8,0.8-3.9
	c0.6-1.1,1.4-2,2.4-2.6c1-0.6,2.2-0.9,3.6-0.9s2.6,0.3,3.6,0.9c1,0.6,1.8,1.5,2.4,2.6c0.6,1.1,0.8,2.4,0.8,3.9s-0.3,2.8-0.8,3.9
	c-0.6,1.1-1.4,2-2.4,2.6C157,54.7,155.8,55,154.4,55z M154.4,52.3c0.8,0,1.4-0.2,1.9-0.6c0.5-0.4,0.9-1,1.1-1.7
	c0.3-0.7,0.4-1.5,0.4-2.4c0-0.9-0.1-1.7-0.4-2.4c-0.2-0.7-0.6-1.3-1.1-1.7c-0.5-0.4-1.1-0.6-1.9-0.6c-0.8,0-1.4,0.2-1.9,0.6
	c-0.5,0.4-0.9,1-1.1,1.7c-0.2,0.7-0.4,1.5-0.4,2.4c0,0.9,0.1,1.7,0.4,2.4c0.3,0.7,0.6,1.3,1.1,1.7C153,52.1,153.6,52.3,154.4,52.3z
	 M170.3,60.4c-1.2,0-2.3-0.2-3.1-0.5c-0.9-0.3-1.6-0.8-2.1-1.3c-0.5-0.5-0.9-1.2-1.1-1.8l3-0.7c0.1,0.3,0.3,0.6,0.6,0.8
	c0.3,0.3,0.6,0.5,1.1,0.7c0.4,0.2,1,0.3,1.7,0.3c1,0,1.8-0.2,2.4-0.7c0.6-0.5,0.9-1.2,0.9-2.3v-2.7h-0.2c-0.2,0.3-0.4,0.7-0.8,1.1
	c-0.3,0.4-0.8,0.7-1.3,0.9c-0.5,0.2-1.2,0.4-2,0.4c-1.1,0-2.1-0.3-3-0.8c-0.9-0.5-1.6-1.3-2.1-2.3c-0.5-1-0.8-2.3-0.8-3.9
	c0-1.6,0.3-2.9,0.8-4c0.5-1.1,1.2-1.9,2.1-2.5c0.9-0.6,1.9-0.8,3-0.8c0.8,0,1.5,0.1,2.1,0.4c0.5,0.3,1,0.6,1.3,1
	c0.3,0.4,0.6,0.8,0.7,1.1h0.2v-2.4h3.3v14.6c0,1.2-0.3,2.2-0.9,3c-0.6,0.8-1.4,1.4-2.4,1.8C172.8,60.2,171.6,60.4,170.3,60.4z
	 M170.4,51.8c0.7,0,1.3-0.2,1.8-0.5c0.5-0.3,0.9-0.8,1.1-1.5c0.3-0.7,0.4-1.4,0.4-2.4c0-0.9-0.1-1.7-0.4-2.4
	c-0.3-0.7-0.6-1.2-1.1-1.6c-0.5-0.4-1.1-0.6-1.8-0.6c-0.8,0-1.4,0.2-1.9,0.6c-0.5,0.4-0.9,0.9-1.1,1.6c-0.3,0.7-0.4,1.4-0.4,2.3
	c0,0.9,0.1,1.6,0.4,2.3c0.3,0.7,0.6,1.2,1.1,1.5C169,51.7,169.6,51.8,170.4,51.8z M180.5,54.7V40.4h3.4v14.3H180.5z M182.2,38.3
	c-0.5,0-1-0.2-1.4-0.5c-0.4-0.4-0.6-0.8-0.6-1.3c0-0.5,0.2-0.9,0.6-1.3c0.4-0.4,0.8-0.5,1.4-0.5c0.5,0,1,0.2,1.4,0.5
	c0.4,0.4,0.6,0.8,0.6,1.3c0,0.5-0.2,0.9-0.6,1.3C183.2,38.1,182.8,38.3,182.2,38.3z M190.8,46.3v8.4h-3.4V40.4h3.2v2.4h0.2
	c0.3-0.8,0.9-1.4,1.6-1.9c0.7-0.5,1.6-0.7,2.7-0.7c1,0,1.9,0.2,2.6,0.6c0.7,0.4,1.3,1,1.7,1.8c0.4,0.8,0.6,1.8,0.6,2.9v9.1h-3.4
	v-8.6c0-1-0.2-1.7-0.7-2.2c-0.5-0.5-1.2-0.8-2-0.8c-0.6,0-1.1,0.1-1.6,0.4c-0.5,0.3-0.8,0.6-1.1,1.1C190.9,45,190.8,45.6,190.8,46.3
	z M209.9,60.1V40.4h3.3v2.4h0.2c0.2-0.3,0.4-0.7,0.7-1.1c0.3-0.4,0.7-0.7,1.3-1c0.5-0.3,1.2-0.4,2.1-0.4c1.1,0,2.1,0.3,3,0.8
	c0.9,0.6,1.6,1.4,2.1,2.5c0.5,1.1,0.8,2.4,0.8,4c0,1.6-0.3,2.9-0.8,4c-0.5,1.1-1.2,1.9-2.1,2.5c-0.9,0.6-1.9,0.9-3,0.9
	c-0.8,0-1.5-0.1-2-0.4c-0.5-0.3-1-0.6-1.3-1c-0.3-0.4-0.6-0.8-0.8-1.1h-0.1v7.6H209.9z M213.2,47.5c0,0.9,0.1,1.7,0.4,2.4
	c0.3,0.7,0.7,1.2,1.1,1.6c0.5,0.4,1.1,0.6,1.8,0.6c0.7,0,1.4-0.2,1.9-0.6c0.5-0.4,0.9-1,1.1-1.7c0.3-0.7,0.4-1.5,0.4-2.4
	c0-0.9-0.1-1.7-0.4-2.4c-0.3-0.7-0.6-1.2-1.1-1.6c-0.5-0.4-1.1-0.6-1.9-0.6c-0.7,0-1.3,0.2-1.8,0.6c-0.5,0.4-0.9,0.9-1.1,1.6
	C213.4,45.8,213.2,46.6,213.2,47.5z M230.5,55c-0.9,0-1.7-0.2-2.5-0.5c-0.7-0.3-1.3-0.8-1.7-1.5c-0.4-0.6-0.6-1.4-0.6-2.4
	c0-0.8,0.1-1.5,0.4-2c0.3-0.5,0.7-1,1.2-1.3c0.5-0.3,1.1-0.6,1.7-0.7c0.7-0.2,1.3-0.3,2-0.4c0.8-0.1,1.5-0.2,2-0.2
	c0.5-0.1,0.9-0.2,1.1-0.3c0.2-0.2,0.4-0.4,0.4-0.7V45c0-0.7-0.2-1.2-0.6-1.6c-0.4-0.4-1-0.6-1.8-0.6c-0.8,0-1.5,0.2-2,0.5
	c-0.5,0.4-0.8,0.8-1,1.3l-3.2-0.4c0.2-0.9,0.7-1.6,1.2-2.2c0.6-0.6,1.3-1,2.1-1.3c0.8-0.3,1.7-0.4,2.7-0.4c0.7,0,1.4,0.1,2.1,0.2
	c0.7,0.2,1.3,0.4,1.9,0.8c0.6,0.4,1,0.9,1.4,1.5c0.3,0.6,0.5,1.4,0.5,2.4v9.6h-3.2v-2h-0.1c-0.2,0.4-0.5,0.8-0.9,1.1
	c-0.4,0.3-0.8,0.6-1.4,0.8C231.9,54.9,231.2,55,230.5,55z M231.3,52.5c0.7,0,1.3-0.1,1.8-0.4c0.5-0.3,0.9-0.6,1.1-1.1
	c0.3-0.4,0.4-0.9,0.4-1.5v-1.7c-0.1,0.1-0.3,0.2-0.5,0.2c-0.2,0.1-0.5,0.1-0.8,0.2c-0.3,0.1-0.6,0.1-0.9,0.1c-0.3,0-0.6,0.1-0.8,0.1
	c-0.5,0.1-1,0.2-1.4,0.3s-0.7,0.4-0.9,0.7c-0.2,0.3-0.3,0.6-0.3,1.1c0,0.6,0.2,1.1,0.7,1.4C230.1,52.3,230.6,52.5,231.3,52.5z
	 M241.4,54.7V40.4h3.3v2.4h0.1c0.3-0.8,0.7-1.5,1.3-1.9c0.6-0.5,1.4-0.7,2.2-0.7c0.2,0,0.4,0,0.6,0c0.2,0,0.4,0,0.6,0.1v3.1
	c-0.1,0-0.4-0.1-0.7-0.1c-0.3,0-0.6-0.1-0.9-0.1c-0.6,0-1.2,0.1-1.7,0.4c-0.5,0.3-0.9,0.6-1.1,1.1c-0.3,0.5-0.4,1-0.4,1.6v8.4H241.4
	z M255.7,55c-0.9,0-1.7-0.2-2.5-0.5c-0.7-0.3-1.3-0.8-1.7-1.5c-0.4-0.6-0.6-1.4-0.6-2.4c0-0.8,0.1-1.5,0.4-2c0.3-0.5,0.7-1,1.2-1.3
	c0.5-0.3,1.1-0.6,1.7-0.7c0.7-0.2,1.3-0.3,2-0.4c0.8-0.1,1.5-0.2,2-0.2c0.5-0.1,0.9-0.2,1.1-0.3c0.2-0.2,0.4-0.4,0.4-0.7V45
	c0-0.7-0.2-1.2-0.6-1.6c-0.4-0.4-1-0.6-1.8-0.6c-0.8,0-1.5,0.2-2,0.5c-0.5,0.4-0.8,0.8-1,1.3l-3.2-0.4c0.2-0.9,0.7-1.6,1.2-2.2
	c0.6-0.6,1.3-1,2.1-1.3c0.8-0.3,1.7-0.4,2.7-0.4c0.7,0,1.4,0.1,2.1,0.2c0.7,0.2,1.3,0.4,1.9,0.8c0.6,0.4,1,0.9,1.4,1.5
	c0.3,0.6,0.5,1.4,0.5,2.4v9.6H260v-2h-0.1c-0.2,0.4-0.5,0.8-0.9,1.1c-0.4,0.3-0.8,0.6-1.4,0.8C257.1,54.9,256.5,55,255.7,55z
	 M256.6,52.5c0.7,0,1.3-0.1,1.8-0.4c0.5-0.3,0.9-0.6,1.1-1.1c0.3-0.4,0.4-0.9,0.4-1.5v-1.7c-0.1,0.1-0.3,0.2-0.5,0.2
	c-0.2,0.1-0.5,0.1-0.8,0.2c-0.3,0.1-0.6,0.1-0.9,0.1c-0.3,0-0.6,0.1-0.8,0.1c-0.5,0.1-1,0.2-1.4,0.3c-0.4,0.2-0.7,0.4-0.9,0.7
	c-0.2,0.3-0.3,0.6-0.3,1.1c0,0.6,0.2,1.1,0.7,1.4C255.3,52.3,255.9,52.5,256.6,52.5z M279.5,55c-1.4,0-2.6-0.3-3.6-0.9
	c-1-0.6-1.8-1.5-2.4-2.6c-0.6-1.1-0.8-2.4-0.8-3.9s0.3-2.8,0.8-3.9c0.6-1.1,1.4-2,2.4-2.6c1-0.6,2.2-0.9,3.6-0.9
	c1.4,0,2.6,0.3,3.6,0.9c1,0.6,1.8,1.5,2.4,2.6c0.6,1.1,0.9,2.4,0.9,3.9s-0.3,2.8-0.9,3.9c-0.6,1.1-1.4,2-2.4,2.6
	C282.1,54.7,280.9,55,279.5,55z M279.5,52.3c0.8,0,1.4-0.2,1.9-0.6c0.5-0.4,0.9-1,1.1-1.7c0.3-0.7,0.4-1.5,0.4-2.4
	c0-0.9-0.1-1.7-0.4-2.4c-0.2-0.7-0.6-1.3-1.1-1.7c-0.5-0.4-1.1-0.6-1.9-0.6c-0.8,0-1.4,0.2-1.9,0.6c-0.5,0.4-0.9,1-1.1,1.7
	c-0.2,0.7-0.4,1.5-0.4,2.4c0,0.9,0.1,1.7,0.4,2.4c0.3,0.7,0.6,1.3,1.1,1.7C278.1,52.1,278.7,52.3,279.5,52.3z M289.4,54.7V35.6h3.4
	v7.1h0.1c0.2-0.3,0.4-0.7,0.7-1.1c0.3-0.4,0.7-0.7,1.3-1c0.5-0.3,1.2-0.4,2.1-0.4c1.1,0,2.1,0.3,3,0.8c0.9,0.6,1.6,1.4,2.1,2.5
	c0.5,1.1,0.8,2.4,0.8,4c0,1.6-0.3,2.9-0.8,4c-0.5,1.1-1.2,1.9-2.1,2.5c-0.9,0.6-1.9,0.9-3,0.9c-0.8,0-1.5-0.1-2-0.4
	c-0.5-0.3-1-0.6-1.3-1c-0.3-0.4-0.6-0.8-0.8-1.1h-0.2v2.3H289.4z M292.7,47.5c0,0.9,0.1,1.7,0.4,2.4c0.3,0.7,0.7,1.2,1.1,1.6
	c0.5,0.4,1.1,0.6,1.8,0.6c0.7,0,1.4-0.2,1.9-0.6c0.5-0.4,0.9-1,1.1-1.7c0.3-0.7,0.4-1.5,0.4-2.4c0-0.9-0.1-1.7-0.4-2.4
	c-0.3-0.7-0.6-1.2-1.1-1.6c-0.5-0.4-1.1-0.6-1.9-0.6c-0.7,0-1.3,0.2-1.8,0.6c-0.5,0.4-0.9,0.9-1.1,1.6
	C292.8,45.8,292.7,46.6,292.7,47.5z M312.9,40.4V43h-8.2v-2.6H312.9z M306.7,36.9h3.4v13.5c0,0.5,0.1,0.8,0.2,1
	c0.1,0.2,0.3,0.4,0.6,0.5c0.2,0.1,0.5,0.1,0.8,0.1c0.2,0,0.4,0,0.6,0c0.2,0,0.3-0.1,0.4-0.1l0.6,2.6c-0.2,0.1-0.4,0.1-0.8,0.2
	c-0.3,0.1-0.7,0.1-1.2,0.1c-0.8,0-1.6-0.1-2.3-0.4c-0.7-0.3-1.2-0.7-1.6-1.3c-0.4-0.6-0.6-1.3-0.6-2.2V36.9z M321.9,55
	c-1.4,0-2.7-0.3-3.7-0.9c-1-0.6-1.8-1.5-2.4-2.6c-0.6-1.1-0.8-2.4-0.8-3.9c0-1.5,0.3-2.8,0.8-3.9c0.6-1.1,1.4-2,2.4-2.6
	c1-0.6,2.2-0.9,3.6-0.9c0.9,0,1.7,0.1,2.5,0.4c0.8,0.3,1.5,0.7,2.1,1.3c0.6,0.6,1.1,1.3,1.4,2.3c0.3,0.9,0.5,2,0.5,3.2v1h-11.7v-2.3
	h8.5c0-0.6-0.1-1.2-0.4-1.7c-0.3-0.5-0.7-0.9-1.1-1.2c-0.5-0.3-1.1-0.4-1.7-0.4c-0.7,0-1.3,0.2-1.8,0.5c-0.5,0.3-0.9,0.8-1.2,1.3
	c-0.3,0.5-0.4,1.1-0.4,1.8v2c0,0.8,0.2,1.5,0.5,2.1c0.3,0.6,0.7,1,1.3,1.4c0.5,0.3,1.2,0.5,1.9,0.5c0.5,0,0.9-0.1,1.3-0.2
	c0.4-0.1,0.7-0.4,1-0.6c0.3-0.3,0.5-0.6,0.7-1l3.2,0.4c-0.2,0.8-0.6,1.6-1.1,2.2c-0.6,0.6-1.3,1.1-2.1,1.4C324,54.8,323,55,321.9,55
	z M331.2,54.7V40.4h3.3v2.4h0.1c0.3-0.8,0.7-1.5,1.3-1.9c0.6-0.5,1.4-0.7,2.2-0.7c0.2,0,0.4,0,0.6,0c0.2,0,0.4,0,0.6,0.1v3.1
	c-0.1,0-0.4-0.1-0.7-0.1c-0.3,0-0.6-0.1-0.9-0.1c-0.6,0-1.2,0.1-1.7,0.4c-0.5,0.3-0.9,0.6-1.1,1.1c-0.3,0.5-0.4,1-0.4,1.6v8.4H331.2
	z M348.1,54.7V40.4h3.2v2.4h0.2c0.3-0.8,0.8-1.5,1.5-1.9c0.7-0.5,1.5-0.7,2.5-0.7c1,0,1.8,0.2,2.5,0.7c0.7,0.5,1.1,1.1,1.4,1.9h0.1
	c0.3-0.8,0.9-1.4,1.6-1.9c0.8-0.5,1.7-0.7,2.7-0.7c1.3,0,2.4,0.4,3.2,1.3c0.8,0.8,1.3,2.1,1.3,3.6v9.6h-3.4v-9.1
	c0-0.9-0.2-1.5-0.7-2c-0.5-0.4-1.1-0.6-1.7-0.6c-0.8,0-1.5,0.3-1.9,0.8c-0.5,0.5-0.7,1.2-0.7,2v8.9h-3.3v-9.2c0-0.7-0.2-1.3-0.7-1.8
	c-0.4-0.4-1-0.7-1.7-0.7c-0.5,0-0.9,0.1-1.3,0.4c-0.4,0.2-0.7,0.6-1,1c-0.2,0.4-0.4,1-0.4,1.5v8.7H348.1z M375.8,55
	c-0.9,0-1.7-0.2-2.5-0.5c-0.7-0.3-1.3-0.8-1.7-1.5c-0.4-0.6-0.6-1.4-0.6-2.4c0-0.8,0.1-1.5,0.4-2c0.3-0.5,0.7-1,1.2-1.3
	c0.5-0.3,1.1-0.6,1.7-0.7c0.7-0.2,1.3-0.3,2-0.4c0.8-0.1,1.5-0.2,2-0.2c0.5-0.1,0.9-0.2,1.1-0.3c0.2-0.2,0.4-0.4,0.4-0.7V45
	c0-0.7-0.2-1.2-0.6-1.6c-0.4-0.4-1-0.6-1.8-0.6c-0.8,0-1.5,0.2-2,0.5c-0.5,0.4-0.8,0.8-1,1.3l-3.2-0.4c0.2-0.9,0.7-1.6,1.2-2.2
	c0.6-0.6,1.3-1,2.1-1.3c0.8-0.3,1.7-0.4,2.7-0.4c0.7,0,1.4,0.1,2.1,0.2s1.3,0.4,1.9,0.8c0.6,0.4,1,0.9,1.4,1.5
	c0.3,0.6,0.5,1.4,0.5,2.4v9.6h-3.2v-2H380c-0.2,0.4-0.5,0.8-0.9,1.1c-0.4,0.3-0.8,0.6-1.4,0.8C377.2,54.9,376.6,55,375.8,55z
	 M376.7,52.5c0.7,0,1.3-0.1,1.8-0.4c0.5-0.3,0.9-0.6,1.1-1.1c0.3-0.4,0.4-0.9,0.4-1.5v-1.7c-0.1,0.1-0.3,0.2-0.5,0.2
	c-0.2,0.1-0.5,0.1-0.8,0.2c-0.3,0.1-0.6,0.1-0.9,0.1c-0.3,0-0.6,0.1-0.8,0.1c-0.5,0.1-1,0.2-1.4,0.3c-0.4,0.2-0.7,0.4-0.9,0.7
	c-0.2,0.3-0.3,0.6-0.3,1.1c0,0.6,0.2,1.1,0.7,1.4C375.4,52.3,376,52.5,376.7,52.5z M386.8,54.7V40.4h3.4v14.3H386.8z M388.5,38.3
	c-0.5,0-1-0.2-1.4-0.5c-0.4-0.4-0.6-0.8-0.6-1.3c0-0.5,0.2-0.9,0.6-1.3c0.4-0.4,0.8-0.5,1.4-0.5c0.5,0,1,0.2,1.4,0.5
	c0.4,0.4,0.6,0.8,0.6,1.3c0,0.5-0.2,0.9-0.6,1.3C389.5,38.1,389,38.3,388.5,38.3z M405,44.1l-3.1,0.3c-0.1-0.3-0.2-0.6-0.5-0.9
	c-0.2-0.3-0.5-0.5-0.9-0.7c-0.4-0.2-0.8-0.3-1.3-0.3c-0.7,0-1.3,0.2-1.8,0.5c-0.5,0.3-0.7,0.7-0.7,1.2c0,0.4,0.1,0.8,0.5,1
	c0.3,0.3,0.8,0.5,1.6,0.6l2.4,0.5c1.4,0.3,2.4,0.8,3,1.4c0.7,0.6,1,1.5,1,2.5c0,0.9-0.3,1.7-0.8,2.4c-0.5,0.7-1.2,1.2-2.2,1.6
	c-0.9,0.4-2,0.6-3.2,0.6c-1.8,0-3.2-0.4-4.2-1.1c-1.1-0.7-1.7-1.8-1.9-3.1l3.3-0.3c0.1,0.6,0.5,1.1,1,1.5c0.5,0.3,1.1,0.5,1.9,0.5
	c0.8,0,1.4-0.2,1.9-0.5c0.5-0.3,0.7-0.7,0.7-1.2c0-0.4-0.2-0.7-0.5-1c-0.3-0.3-0.8-0.5-1.5-0.6l-2.4-0.5c-1.4-0.3-2.4-0.8-3.1-1.4
	c-0.7-0.7-1-1.5-1-2.6c0-0.9,0.2-1.6,0.7-2.3c0.5-0.7,1.2-1.2,2-1.5c0.9-0.4,1.9-0.5,3-0.5c1.7,0,3,0.4,4,1.1
	C404.1,42,404.7,42.9,405,44.1z M418.7,55c-0.9,0-1.7-0.2-2.5-0.5c-0.7-0.3-1.3-0.8-1.7-1.5c-0.4-0.6-0.6-1.4-0.6-2.4
	c0-0.8,0.1-1.5,0.4-2c0.3-0.5,0.7-1,1.2-1.3s1.1-0.6,1.7-0.7c0.7-0.2,1.3-0.3,2-0.4c0.8-0.1,1.5-0.2,2-0.2c0.5-0.1,0.9-0.2,1.1-0.3
	c0.2-0.2,0.4-0.4,0.4-0.7V45c0-0.7-0.2-1.2-0.6-1.6c-0.4-0.4-1-0.6-1.8-0.6c-0.8,0-1.5,0.2-2,0.5c-0.5,0.4-0.8,0.8-1,1.3l-3.2-0.4
	c0.2-0.9,0.7-1.6,1.2-2.2c0.6-0.6,1.3-1,2.1-1.3c0.8-0.3,1.7-0.4,2.7-0.4c0.7,0,1.4,0.1,2.1,0.2c0.7,0.2,1.3,0.4,1.9,0.8
	c0.6,0.4,1,0.9,1.4,1.5c0.3,0.6,0.5,1.4,0.5,2.4v9.6H423v-2h-0.1c-0.2,0.4-0.5,0.8-0.9,1.1c-0.4,0.3-0.8,0.6-1.4,0.8
	C420.1,54.9,419.5,55,418.7,55z M419.6,52.5c0.7,0,1.3-0.1,1.8-0.4c0.5-0.3,0.9-0.6,1.1-1.1c0.3-0.4,0.4-0.9,0.4-1.5v-1.7
	c-0.1,0.1-0.3,0.2-0.5,0.2c-0.2,0.1-0.5,0.1-0.8,0.2c-0.3,0.1-0.6,0.1-0.9,0.1c-0.3,0-0.6,0.1-0.8,0.1c-0.5,0.1-1,0.2-1.4,0.3
	c-0.4,0.2-0.7,0.4-0.9,0.7c-0.2,0.3-0.3,0.6-0.3,1.1c0,0.6,0.2,1.1,0.7,1.4C418.3,52.3,418.9,52.5,419.6,52.5z M435.9,55
	c-1.4,0-2.7-0.3-3.7-0.9c-1-0.6-1.8-1.5-2.4-2.6c-0.5-1.1-0.8-2.4-0.8-3.8c0-1.5,0.3-2.7,0.8-3.9c0.6-1.1,1.3-2,2.4-2.6
	c1-0.6,2.2-0.9,3.6-0.9c1.2,0,2.2,0.2,3.1,0.6c0.9,0.4,1.6,1,2.2,1.8c0.5,0.8,0.8,1.7,0.9,2.7h-3.2c-0.1-0.7-0.4-1.3-0.9-1.7
	c-0.5-0.5-1.1-0.7-2-0.7c-0.7,0-1.3,0.2-1.8,0.6c-0.5,0.4-0.9,0.9-1.2,1.6c-0.3,0.7-0.4,1.5-0.4,2.5c0,1,0.1,1.8,0.4,2.5
	c0.3,0.7,0.7,1.2,1.2,1.6c0.5,0.4,1.1,0.6,1.8,0.6c0.5,0,0.9-0.1,1.3-0.3c0.4-0.2,0.7-0.5,1-0.8c0.3-0.4,0.5-0.8,0.6-1.3h3.2
	c-0.1,1-0.4,1.9-0.9,2.7c-0.5,0.8-1.2,1.4-2.1,1.8C438.2,54.8,437.1,55,435.9,55z M451.2,55c-1.4,0-2.7-0.3-3.7-0.9
	c-1-0.6-1.8-1.5-2.4-2.6c-0.6-1.1-0.8-2.4-0.8-3.9c0-1.5,0.3-2.8,0.8-3.9c0.6-1.1,1.4-2,2.4-2.6c1-0.6,2.2-0.9,3.6-0.9
	c0.9,0,1.7,0.1,2.5,0.4c0.8,0.3,1.5,0.7,2.1,1.3c0.6,0.6,1.1,1.3,1.4,2.3c0.3,0.9,0.5,2,0.5,3.2v1h-11.8v-2.3h8.5
	c0-0.6-0.1-1.2-0.4-1.7c-0.3-0.5-0.7-0.9-1.1-1.2c-0.5-0.3-1.1-0.4-1.7-0.4c-0.7,0-1.3,0.2-1.8,0.5c-0.5,0.3-0.9,0.8-1.2,1.3
	c-0.3,0.5-0.4,1.1-0.4,1.8v2c0,0.8,0.2,1.5,0.5,2.1c0.3,0.6,0.7,1,1.3,1.4c0.5,0.3,1.2,0.5,1.9,0.5c0.5,0,0.9-0.1,1.3-0.2
	c0.4-0.1,0.7-0.4,1-0.6c0.3-0.3,0.5-0.6,0.7-1l3.2,0.4c-0.2,0.8-0.6,1.6-1.1,2.2c-0.6,0.6-1.3,1.1-2.1,1.4
	C453.3,54.8,452.3,55,451.2,55z M471.8,44.1l-3.1,0.3c-0.1-0.3-0.2-0.6-0.5-0.9c-0.2-0.3-0.5-0.5-0.9-0.7c-0.4-0.2-0.8-0.3-1.3-0.3
	c-0.7,0-1.3,0.2-1.8,0.5c-0.5,0.3-0.7,0.7-0.7,1.2c0,0.4,0.1,0.8,0.5,1c0.3,0.3,0.8,0.5,1.6,0.6l2.4,0.5c1.4,0.3,2.4,0.8,3,1.4
	c0.7,0.6,1,1.5,1,2.5c0,0.9-0.3,1.7-0.8,2.4c-0.5,0.7-1.2,1.2-2.2,1.6c-0.9,0.4-2,0.6-3.2,0.6c-1.8,0-3.2-0.4-4.2-1.1
	c-1.1-0.7-1.7-1.8-1.9-3.1l3.3-0.3c0.1,0.6,0.5,1.1,1,1.5c0.5,0.3,1.1,0.5,1.9,0.5c0.8,0,1.4-0.2,1.9-0.5c0.5-0.3,0.7-0.7,0.7-1.2
	c0-0.4-0.2-0.7-0.5-1c-0.3-0.3-0.8-0.5-1.5-0.6l-2.4-0.5c-1.4-0.3-2.4-0.8-3.1-1.4c-0.7-0.7-1-1.5-1-2.6c0-0.9,0.2-1.6,0.7-2.3
	c0.5-0.7,1.2-1.2,2-1.5c0.9-0.4,1.9-0.5,3-0.5c1.7,0,3,0.4,4,1.1C470.9,42,471.5,42.9,471.8,44.1z M486.2,44.1l-3.1,0.3
	c-0.1-0.3-0.2-0.6-0.5-0.9c-0.2-0.3-0.5-0.5-0.9-0.7c-0.4-0.2-0.8-0.3-1.3-0.3c-0.7,0-1.3,0.2-1.8,0.5c-0.5,0.3-0.7,0.7-0.7,1.2
	c0,0.4,0.1,0.8,0.5,1c0.3,0.3,0.8,0.5,1.6,0.6l2.4,0.5c1.4,0.3,2.4,0.8,3,1.4c0.7,0.6,1,1.5,1,2.5c0,0.9-0.3,1.7-0.8,2.4
	c-0.5,0.7-1.2,1.2-2.2,1.6c-0.9,0.4-2,0.6-3.2,0.6c-1.8,0-3.2-0.4-4.2-1.1c-1.1-0.7-1.7-1.8-1.9-3.1l3.3-0.3c0.1,0.6,0.5,1.1,1,1.5
	c0.5,0.3,1.1,0.5,1.9,0.5c0.8,0,1.4-0.2,1.9-0.5c0.5-0.3,0.7-0.7,0.7-1.2c0-0.4-0.2-0.7-0.5-1c-0.3-0.3-0.8-0.5-1.5-0.6l-2.4-0.5
	c-1.4-0.3-2.4-0.8-3.1-1.4c-0.7-0.7-1-1.5-1-2.6c0-0.9,0.2-1.6,0.7-2.3c0.5-0.7,1.2-1.2,2-1.5c0.9-0.4,1.9-0.5,3-0.5
	c1.7,0,3,0.4,4,1.1C485.4,42,486,42.9,486.2,44.1z M495.5,55c-1.4,0-2.6-0.3-3.6-0.9c-1-0.6-1.8-1.5-2.4-2.6
	c-0.6-1.1-0.8-2.4-0.8-3.9s0.3-2.8,0.8-3.9c0.6-1.1,1.4-2,2.4-2.6c1-0.6,2.2-0.9,3.6-0.9c1.4,0,2.6,0.3,3.6,0.9
	c1,0.6,1.8,1.5,2.4,2.6c0.6,1.1,0.9,2.4,0.9,3.9s-0.3,2.8-0.9,3.9c-0.6,1.1-1.4,2-2.4,2.6C498.1,54.7,496.9,55,495.5,55z
	 M495.5,52.3c0.8,0,1.4-0.2,1.9-0.6c0.5-0.4,0.9-1,1.1-1.7c0.3-0.7,0.4-1.5,0.4-2.4c0-0.9-0.1-1.7-0.4-2.4c-0.2-0.7-0.6-1.3-1.1-1.7
	c-0.5-0.4-1.1-0.6-1.9-0.6c-0.8,0-1.4,0.2-1.9,0.6c-0.5,0.4-0.9,1-1.1,1.7c-0.2,0.7-0.4,1.5-0.4,2.4c0,0.9,0.1,1.7,0.4,2.4
	c0.3,0.7,0.6,1.3,1.1,1.7C494.1,52.1,494.8,52.3,495.5,52.3z"/>
</svg>
