<?xml version="1.0" encoding="utf-8"?>
<!-- Generator: Adobe Illustrator 25.0.0, SVG Export Plug-In . SVG Version: 6.00 Build 0)  -->
<svg version="1.1" id="Camada_1" xmlns="http://www.w3.org/2000/svg" xmlns:xlink="http://www.w3.org/1999/xlink" x="0px" y="0px"
	 viewBox="0 0 582 95" style="enable-background:new 0 0 582 95;" xml:space="preserve">
<style type="text/css">
	.st0{fill:#FF4848;}
	.st1{fill:#5B21FF;}
	.st2{fill:#FFFFFF;}
</style>
<path class="st0" d="M62.5,0h473C561.2,0,582,20.8,582,46.5l0,0c0,25.7-20.8,46.5-46.5,46.5h-473C36.8,93,16,72.2,16,46.5l0,0
	C16,20.8,36.8,0,62.5,0z"/>
<path class="st1" d="M46.5,2h473C545.2,2,566,22.8,566,48.5l0,0c0,25.7-20.8,46.5-46.5,46.5h-473C20.8,95,0,74.2,0,48.5l0,0
	C0,22.8,20.8,2,46.5,2z"/>
<path class="st2" d="M10,47.5C10,22.4,30.4,2,55.5,2h471C551.6,2,572,22.4,572,47.5l0,0c0,25.1-20.4,45.5-45.5,45.5h-471
	C30.4,93,10,72.6,10,47.5L10,47.5z"/>
<g>
	<path d="M113.1,56.4V36.9h4v16.1h9.8v3.3H113.1z"/>
	<path d="M128.8,49.1c0-1.2,0.3-2.5,0.9-3.6s1.5-2.1,2.6-2.7s2.4-0.9,3.8-0.9c2.1,0,3.9,0.7,5.3,2.1s2.1,3.2,2.1,5.3
		c0,2.1-0.7,3.9-2.1,5.3c-1.4,1.4-3.1,2.1-5.2,2.1c-1.3,0-2.5-0.3-3.7-0.9c-1.2-0.6-2.1-1.5-2.7-2.6S128.8,50.7,128.8,49.1z
		 M132.7,49.3c0,1.4,0.3,2.5,1,3.2c0.7,0.7,1.5,1.1,2.5,1.1c1,0,1.8-0.4,2.5-1.1c0.7-0.7,1-1.8,1-3.3c0-1.4-0.3-2.5-1-3.2
		c-0.7-0.7-1.5-1.1-2.5-1.1c-1,0-1.8,0.4-2.5,1.1C133,46.8,132.7,47.9,132.7,49.3z"/>
	<path d="M146.1,57.3l4.3,0.5c0.1,0.5,0.2,0.8,0.5,1c0.4,0.3,0.9,0.4,1.7,0.4c1,0,1.7-0.1,2.2-0.4c0.3-0.2,0.6-0.5,0.7-0.9
		c0.1-0.3,0.2-0.9,0.2-1.7v-2.1c-1.1,1.5-2.5,2.3-4.3,2.3c-1.9,0-3.4-0.8-4.5-2.4c-0.9-1.3-1.3-2.9-1.3-4.8c0-2.4,0.6-4.2,1.7-5.5
		c1.1-1.3,2.6-1.9,4.3-1.9c1.8,0,3.2,0.8,4.3,2.3v-2h3.5v12.7c0,1.7-0.1,2.9-0.4,3.8s-0.7,1.5-1.2,2s-1.2,0.8-2,1.1
		s-1.9,0.4-3.2,0.4c-2.4,0-4.1-0.4-5.1-1.2c-1-0.8-1.5-1.9-1.5-3.1C146.1,57.7,146.1,57.5,146.1,57.3z M149.4,49
		c0,1.5,0.3,2.6,0.9,3.3s1.3,1,2.2,1c0.9,0,1.7-0.4,2.3-1.1c0.6-0.7,0.9-1.8,0.9-3.2c0-1.5-0.3-2.6-0.9-3.3
		c-0.6-0.7-1.4-1.1-2.3-1.1c-0.9,0-1.6,0.3-2.2,1S149.4,47.6,149.4,49z"/>
	<path d="M163.2,40.3v-3.5h3.8v3.5H163.2z M163.2,56.4V42.2h3.8v14.2H163.2z"/>
	<path d="M183.7,56.4h-3.8v-7.2c0-1.5-0.1-2.5-0.2-3c-0.2-0.5-0.4-0.8-0.8-1.1c-0.4-0.2-0.8-0.4-1.3-0.4c-0.7,0-1.2,0.2-1.8,0.5
		s-0.9,0.8-1.1,1.4c-0.2,0.6-0.3,1.7-0.3,3.3v6.4h-3.8V42.2h3.5v2.1c1.2-1.6,2.8-2.4,4.7-2.4c0.8,0,1.6,0.1,2.3,0.4
		c0.7,0.3,1.2,0.7,1.6,1.1c0.4,0.5,0.6,1,0.7,1.6c0.1,0.6,0.2,1.4,0.2,2.5V56.4z"/>
	<path d="M201.6,42.2v3h-2.6v5.7c0,1.2,0,1.8,0.1,2c0,0.2,0.2,0.3,0.3,0.5c0.2,0.1,0.4,0.2,0.6,0.2c0.3,0,0.9-0.1,1.5-0.4l0.3,2.9
		c-0.9,0.4-1.9,0.6-3,0.6c-0.7,0-1.3-0.1-1.8-0.3c-0.5-0.2-0.9-0.5-1.2-0.9c-0.3-0.4-0.4-0.8-0.5-1.5c-0.1-0.4-0.1-1.3-0.1-2.6v-6.2
		h-1.7v-3h1.7v-2.8l3.8-2.2v5H201.6z"/>
	<path d="M203.4,49.1c0-1.2,0.3-2.5,0.9-3.6s1.5-2.1,2.6-2.7s2.4-0.9,3.8-0.9c2.1,0,3.9,0.7,5.3,2.1s2.1,3.2,2.1,5.3
		c0,2.1-0.7,3.9-2.1,5.3c-1.4,1.4-3.1,2.1-5.2,2.1c-1.3,0-2.5-0.3-3.7-0.9c-1.2-0.6-2.1-1.5-2.7-2.6S203.4,50.7,203.4,49.1z
		 M207.2,49.3c0,1.4,0.3,2.5,1,3.2c0.7,0.7,1.5,1.1,2.5,1.1c1,0,1.8-0.4,2.5-1.1c0.7-0.7,1-1.8,1-3.3c0-1.4-0.3-2.5-1-3.2
		c-0.7-0.7-1.5-1.1-2.5-1.1c-1,0-1.8,0.4-2.5,1.1C207.6,46.8,207.2,47.9,207.2,49.3z"/>
	<path d="M237.7,49.2v-3.3h8.5v7.8c-0.8,0.8-2,1.5-3.6,2.1c-1.6,0.6-3.2,0.9-4.8,0.9c-2.1,0-3.8-0.4-5.4-1.3
		c-1.5-0.9-2.7-2.1-3.4-3.7c-0.8-1.6-1.2-3.3-1.2-5.2c0-2,0.4-3.9,1.3-5.4c0.9-1.6,2.1-2.8,3.8-3.7c1.3-0.7,2.8-1,4.7-1
		c2.4,0,4.3,0.5,5.7,1.5c1.4,1,2.2,2.4,2.6,4.2l-3.9,0.7c-0.3-1-0.8-1.7-1.6-2.3c-0.8-0.6-1.7-0.8-2.9-0.8c-1.7,0-3.1,0.5-4.1,1.6
		s-1.5,2.7-1.5,4.9c0,2.3,0.5,4.1,1.6,5.2c1,1.2,2.4,1.7,4.1,1.7c0.8,0,1.7-0.2,2.5-0.5c0.8-0.3,1.5-0.7,2.1-1.2v-2.5H237.7z"/>
	<path d="M258.1,51.9l3.7,0.6c-0.5,1.4-1.2,2.4-2.3,3.1c-1,0.7-2.3,1.1-3.9,1.1c-2.5,0-4.3-0.8-5.5-2.4c-0.9-1.3-1.4-2.9-1.4-4.9
		c0-2.4,0.6-4.2,1.8-5.5s2.8-2,4.7-2c2.1,0,3.8,0.7,5,2.1c1.2,1.4,1.8,3.5,1.8,6.4h-9.4c0,1.1,0.3,2,0.9,2.6
		c0.6,0.6,1.3,0.9,2.2,0.9c0.6,0,1.1-0.2,1.5-0.5C257.6,53.1,257.9,52.6,258.1,51.9z M258.3,48.1c0-1.1-0.3-1.9-0.8-2.5
		s-1.2-0.8-2-0.8c-0.8,0-1.5,0.3-2,0.9c-0.5,0.6-0.8,1.4-0.8,2.4H258.3z"/>
	<path d="M271.6,42.2v3h-2.6v5.7c0,1.2,0,1.8,0.1,2c0,0.2,0.2,0.3,0.3,0.5c0.2,0.1,0.4,0.2,0.6,0.2c0.3,0,0.9-0.1,1.5-0.4l0.3,2.9
		c-0.9,0.4-1.9,0.6-3,0.6c-0.7,0-1.3-0.1-1.8-0.3c-0.5-0.2-0.9-0.5-1.2-0.9c-0.3-0.4-0.4-0.8-0.5-1.5c-0.1-0.4-0.1-1.3-0.1-2.6v-6.2
		h-1.7v-3h1.7v-2.8l3.8-2.2v5H271.6z"/>
	<path d="M281.8,56.4V36.8h5.9l3.6,13.4l3.5-13.4h5.9v19.6h-3.7V41l-3.9,15.4h-3.8L285.5,41v15.4H281.8z"/>
	<path d="M303.8,49.1c0-1.2,0.3-2.5,0.9-3.6s1.5-2.1,2.6-2.7c1.1-0.6,2.4-0.9,3.8-0.9c2.1,0,3.9,0.7,5.3,2.1s2.1,3.2,2.1,5.3
		c0,2.1-0.7,3.9-2.1,5.3c-1.4,1.4-3.1,2.1-5.2,2.1c-1.3,0-2.5-0.3-3.7-0.9c-1.2-0.6-2.1-1.5-2.7-2.6S303.8,50.7,303.8,49.1z
		 M307.7,49.3c0,1.4,0.3,2.5,1,3.2c0.7,0.7,1.5,1.1,2.5,1.1c1,0,1.8-0.4,2.5-1.1s1-1.8,1-3.3c0-1.4-0.3-2.5-1-3.2s-1.5-1.1-2.5-1.1
		c-1,0-1.8,0.4-2.5,1.1C308,46.8,307.7,47.9,307.7,49.3z"/>
	<path d="M325,56.4h-3.8V42.2h3.5v2c0.6-1,1.1-1.6,1.6-1.9c0.5-0.3,1-0.5,1.6-0.5c0.9,0,1.7,0.2,2.5,0.7l-1.2,3.3
		c-0.6-0.4-1.2-0.6-1.8-0.6c-0.5,0-1,0.1-1.3,0.4c-0.4,0.3-0.7,0.8-0.9,1.6S325,49.6,325,52V56.4z"/>
	<path d="M340.3,51.9l3.7,0.6c-0.5,1.4-1.2,2.4-2.3,3.1c-1,0.7-2.3,1.1-3.9,1.1c-2.5,0-4.3-0.8-5.5-2.4c-0.9-1.3-1.4-2.9-1.4-4.9
		c0-2.4,0.6-4.2,1.8-5.5s2.8-2,4.7-2c2.1,0,3.8,0.7,5,2.1s1.8,3.5,1.8,6.4h-9.4c0,1.1,0.3,2,0.9,2.6c0.6,0.6,1.3,0.9,2.2,0.9
		c0.6,0,1.1-0.2,1.5-0.5C339.8,53.1,340.1,52.6,340.3,51.9z M340.5,48.1c0-1.1-0.3-1.9-0.8-2.5c-0.5-0.6-1.2-0.8-2-0.8
		c-0.8,0-1.5,0.3-2,0.9c-0.5,0.6-0.8,1.4-0.8,2.4H340.5z"/>
	<path d="M371.6,56.4h-4.3l-1.7-4.5h-7.8l-1.6,4.5h-4.2l7.6-19.6h4.2L371.6,56.4z M364.3,48.6l-2.7-7.3l-2.6,7.3H364.3z"/>
	<path d="M386.1,46.4l-3.7,0.7c-0.1-0.7-0.4-1.3-0.8-1.7c-0.4-0.4-1-0.6-1.7-0.6c-0.9,0-1.7,0.3-2.2,1s-0.8,1.7-0.8,3.2
		c0,1.7,0.3,2.9,0.8,3.6s1.3,1,2.3,1c0.7,0,1.3-0.2,1.8-0.6c0.5-0.4,0.8-1.1,1-2.1l3.7,0.6c-0.4,1.7-1.1,3-2.2,3.8
		c-1.1,0.9-2.5,1.3-4.4,1.3c-2.1,0-3.7-0.7-5-2c-1.2-1.3-1.9-3.1-1.9-5.4c0-2.3,0.6-4.2,1.9-5.5s2.9-2,5-2c1.7,0,3.1,0.4,4.1,1.1
		C384.9,43.7,385.6,44.9,386.1,46.4z"/>
	<path d="M401.3,46.4l-3.7,0.7c-0.1-0.7-0.4-1.3-0.8-1.7c-0.4-0.4-1-0.6-1.7-0.6c-0.9,0-1.7,0.3-2.2,1s-0.8,1.7-0.8,3.2
		c0,1.7,0.3,2.9,0.8,3.6s1.3,1,2.3,1c0.7,0,1.3-0.2,1.8-0.6c0.5-0.4,0.8-1.1,1-2.1l3.7,0.6c-0.4,1.7-1.1,3-2.2,3.8
		c-1.1,0.9-2.5,1.3-4.4,1.3c-2.1,0-3.7-0.7-5-2c-1.2-1.3-1.9-3.1-1.9-5.4c0-2.3,0.6-4.2,1.9-5.5s2.9-2,5-2c1.7,0,3.1,0.4,4.1,1.1
		C400.1,43.7,400.8,44.9,401.3,46.4z"/>
	<path d="M412.4,51.9l3.7,0.6c-0.5,1.4-1.2,2.4-2.3,3.1c-1,0.7-2.3,1.1-3.9,1.1c-2.5,0-4.3-0.8-5.5-2.4c-0.9-1.3-1.4-2.9-1.4-4.9
		c0-2.4,0.6-4.2,1.8-5.5s2.8-2,4.7-2c2.1,0,3.8,0.7,5,2.1s1.8,3.5,1.8,6.4h-9.4c0,1.1,0.3,2,0.9,2.6c0.6,0.6,1.3,0.9,2.2,0.9
		c0.6,0,1.1-0.2,1.5-0.5C411.9,53.1,412.2,52.6,412.4,51.9z M412.6,48.1c0-1.1-0.3-1.9-0.8-2.5c-0.5-0.6-1.2-0.8-2-0.8
		c-0.8,0-1.5,0.3-2,0.9c-0.5,0.6-0.8,1.4-0.8,2.4H412.6z"/>
	<path d="M418,52.3l3.8-0.6c0.2,0.7,0.5,1.3,1,1.7c0.5,0.4,1.2,0.6,2.1,0.6c1,0,1.7-0.2,2.2-0.5c0.3-0.2,0.5-0.6,0.5-1
		c0-0.3-0.1-0.5-0.3-0.7c-0.2-0.2-0.6-0.3-1.3-0.5c-3-0.7-5-1.3-5.8-1.8c-1.1-0.8-1.7-1.8-1.7-3.2c0-1.2,0.5-2.3,1.5-3.1
		s2.5-1.3,4.5-1.3c1.9,0,3.4,0.3,4.3,1s1.6,1.6,2,2.8l-3.5,0.7c-0.2-0.6-0.4-1-0.9-1.3c-0.4-0.3-1-0.4-1.8-0.4c-1,0-1.7,0.1-2.1,0.4
		c-0.3,0.2-0.4,0.5-0.4,0.8c0,0.3,0.1,0.5,0.4,0.7c0.3,0.2,1.5,0.6,3.5,1.1c2,0.5,3.4,1,4.2,1.7c0.8,0.7,1.2,1.6,1.2,2.8
		c0,1.3-0.5,2.4-1.6,3.4c-1.1,0.9-2.7,1.4-4.8,1.4c-1.9,0-3.5-0.4-4.6-1.2C419.1,54.7,418.4,53.7,418,52.3z"/>
	<path d="M433.3,52.3l3.8-0.6c0.2,0.7,0.5,1.3,1,1.7c0.5,0.4,1.2,0.6,2.1,0.6c1,0,1.7-0.2,2.2-0.5c0.3-0.2,0.5-0.6,0.5-1
		c0-0.3-0.1-0.5-0.3-0.7c-0.2-0.2-0.6-0.3-1.3-0.5c-3-0.7-5-1.3-5.8-1.8c-1.1-0.8-1.7-1.8-1.7-3.2c0-1.2,0.5-2.3,1.5-3.1
		s2.5-1.3,4.5-1.3c1.9,0,3.4,0.3,4.3,1s1.6,1.6,2,2.8l-3.5,0.7c-0.2-0.6-0.4-1-0.9-1.3c-0.4-0.3-1-0.4-1.8-0.4c-1,0-1.7,0.1-2.1,0.4
		c-0.3,0.2-0.4,0.5-0.4,0.8c0,0.3,0.1,0.5,0.4,0.7c0.3,0.2,1.5,0.6,3.5,1.1c2,0.5,3.4,1,4.2,1.7c0.8,0.7,1.2,1.6,1.2,2.8
		c0,1.3-0.5,2.4-1.6,3.4c-1.1,0.9-2.7,1.4-4.8,1.4c-1.9,0-3.5-0.4-4.6-1.2C434.4,54.7,433.6,53.7,433.3,52.3z"/>
</g>
</svg>
