<svg width="31" height="29" viewBox="0 0 31 29" fill="none" xmlns="http://www.w3.org/2000/svg">
<path fill-rule="evenodd" clip-rule="evenodd" d="M28.0674 14.5C28.0674 21.336 22.3007 27 15.0337 27C7.76663 27 2 21.336 2 14.5C2 7.66396 7.76663 2 15.0337 2C22.3007 2 28.0674 7.66396 28.0674 14.5ZM30.0674 14.5C30.0674 22.5081 23.3366 29 15.0337 29C6.73081 29 0 22.5081 0 14.5C0 6.49187 6.73081 0 15.0337 0C23.3366 0 30.0674 6.49187 30.0674 14.5ZM21.7872 14.5693L12.0117 8.59598L12.0117 14.5693V21.0846L21.7872 14.5693Z" fill="white"/>
</svg>
