<svg width="17" height="27" viewBox="0 0 17 27" fill="none" xmlns="http://www.w3.org/2000/svg">
<path fill-rule="evenodd" clip-rule="evenodd" d="M10.9448 25.4655C7.25 25.6342 3.742 25.819 0.444813 26.0181C0.420321 25.9959 0.396296 25.9738 0.372739 25.9517C0.237953 25.821 0.257033 25.8342 0.306698 25.8688C0.373567 25.9152 0.495879 26.0002 0.372734 25.8242C1.30757 24.7056 0.889338 23.0278 0.292852 20.635C0.19816 20.2551 0.0989761 19.8572 0 19.4407C0.4631 20.2843 1.08433 21.0205 1.8637 21.6494C2.64306 22.2629 3.48455 22.5697 4.38816 22.5697C5.16171 22.5697 5.63204 22.4792 6.09664 22.3898C6.17475 22.3747 6.2527 22.3597 6.33191 22.3452C6.46312 22.3211 6.59171 22.2991 6.71824 22.2775C7.12233 22.2085 7.50538 22.143 7.88573 22.024C8.38517 21.8678 9.91124 21.2747 9.38405 19.5887C9.15488 19.3242 8.96544 19.0319 8.75473 18.7069C8.55003 18.3911 8.32525 18.0443 8.02446 17.6619C7.76675 17.4869 7.45677 17.0607 7.17246 16.6699C7.00817 16.444 6.85246 16.2299 6.72036 16.0829C6.58556 15.9731 6.52367 15.8682 6.44419 15.7335C6.35718 15.5861 6.24908 15.4029 6.00116 15.1384C5.53806 14.6169 5.15967 14.0801 4.866 13.5279C4.72108 13.2479 4.49267 12.954 4.22963 12.6157C3.95961 12.2683 3.65311 11.8741 3.363 11.3996C3.07085 10.9218 2.90205 10.6598 2.72202 10.3804C2.50878 10.0494 2.27978 9.69391 1.8114 8.92648C-0.382814 4.09365 -1.35395 0.298828 6.30268 0.298828C7.02557 0.298828 7.70328 0.406194 8.3358 0.620926C8.97962 0.82032 9.48226 1.04272 9.8437 1.28813C10.2051 1.53354 10.5327 1.82496 10.8264 2.1624C11.1313 2.4845 11.3234 2.71457 11.4024 2.85261C11.4815 2.97532 11.538 3.07501 11.5719 3.1517C11.9203 4.40875 12.1576 4.57637 12.1377 4.70382C12.1215 4.80751 11.9351 4.88462 11.5 5.5C11.2637 5.12154 10.7719 5.39798 10.2637 5.68356C9.82459 5.93038 9.37329 6.18402 9.06434 6.02759C8.40922 5.67481 7.78234 5.49843 7.1837 5.49843C5.73792 5.49843 5.01503 6.11195 5.01503 7.33899C5.01503 7.66109 5.06022 7.95251 5.15058 8.21326C5.24094 8.474 5.38777 8.71174 5.59109 8.92648C5.7944 9.14121 5.98077 9.32527 6.1502 9.47865C6.33092 9.63203 6.57376 9.82375 6.87873 10.0538C7.19499 10.2686 7.43219 10.4449 7.59032 10.583C8.88461 11.7128 9.93899 12.6842 11.2161 13.965C12.6859 15.9224 12.8524 16.6182 13.3519 18.8655C13.7499 21.6558 12.5348 23.9003 10.9448 25.4655Z" fill="#FF4848"/>
<path fill-rule="evenodd" clip-rule="evenodd" d="M13.9217 26.0767C10.7763 26.213 7.75847 26.3606 4.88232 26.5188C4.86167 26.3379 4.78105 25.9753 4.6265 25.3249C4.81869 25.675 4.78145 25.398 4.72783 24.9991C4.65224 24.4367 4.54408 23.6321 5 24C5.4438 24.3494 5.86354 24.0279 6.30956 23.6863C6.64681 23.4281 6.99908 23.1583 7.38814 23.1583C8.16169 23.1583 8.63203 23.0678 9.09662 22.9784C9.17474 22.9634 9.25269 22.9483 9.33189 22.9338C9.46311 22.9097 9.5917 22.8878 9.71823 22.8661C10.1223 22.7971 10.5054 22.7316 10.8857 22.6127C11.3852 22.4564 12.9112 21.8633 12.384 20.1774C12.1549 19.9128 11.9654 19.6206 11.7547 19.2955C11.55 18.9797 11.3252 18.6329 11.0244 18.2505C10.7667 18.0755 10.4568 17.6494 10.1724 17.2585C10.0082 17.0326 9.85245 16.8186 9.72035 16.6716C9.58555 16.5617 9.52366 16.4568 9.44418 16.3222C9.35717 16.1747 9.24907 15.9915 9.00115 15.727C8.53805 15.2055 8.15966 14.6687 7.86599 14.1165C7.72107 13.8365 7.49266 13.5427 7.22962 13.2043C6.9596 12.857 6.6531 12.4627 6.36299 11.9882C6.07084 11.5104 5.90204 11.2484 5.722 10.969C5.50876 10.638 5.27976 10.2825 4.81139 9.5151C2.61717 4.68227 1.64604 0.887451 9.30267 0.887451C10.0256 0.887451 10.7033 0.994817 11.3358 1.20955C11.9796 1.40894 12.4822 1.63134 12.8437 1.87675C13.2051 2.12216 13.5327 2.41359 13.8264 2.75102C14.1313 3.07312 14.3234 3.30319 14.4024 3.44123C14.4815 3.56394 14.538 3.66364 14.5718 3.74033C15.2038 6.01996 14.6947 6.80883 13.7247 8.18069C13.2842 7.47514 12.7307 6.95365 12.0643 6.61621C11.4092 6.26343 10.7823 6.08705 10.1837 6.08705C8.73791 6.08705 8.01502 6.70057 8.01502 7.92761C8.01502 8.24971 8.0602 8.54113 8.15056 8.80188C8.24093 9.06263 8.38776 9.30037 8.59107 9.5151C8.79439 9.72983 8.98076 9.91389 9.15018 10.0673C9.3309 10.2207 9.57375 10.4124 9.87872 10.6424C10.195 10.8572 10.4322 11.0336 10.5903 11.1716C11.8846 12.3015 12.939 13.2728 14.216 14.5536C15.6859 16.511 15.8524 17.2068 16.3518 19.4542C16.7518 22.2579 15.523 24.5106 13.9217 26.0767ZM3.43711 26.5998C3.84953 26.5762 4.26501 26.5528 4.68351 26.5297C4.68335 26.5296 4.68319 26.5294 4.68302 26.5292C4.41615 26.2606 3.91859 25.7596 3.37272 26.4128C3.49587 26.5889 3.37355 26.5039 3.30669 26.4574C3.25702 26.4229 3.23794 26.4096 3.37273 26.5403C3.39381 26.5601 3.41528 26.5799 3.43711 26.5998Z" fill="#5B21FF"/>
<path fill-rule="evenodd" clip-rule="evenodd" d="M2.71811 26.6271C5.81534 26.4477 9.08832 26.2809 12.5182 26.1277C12.5647 26.0853 12.6121 26.0417 12.6604 25.9969C14.3562 24.4255 15.7037 22.1045 15.2875 19.1868C14.7881 16.9395 14.6216 16.2436 13.1517 14.2863C11.8747 13.0055 10.8203 12.0341 9.52599 10.9043C9.36786 10.7662 9.13066 10.5898 8.8144 10.3751C8.50943 10.145 8.26659 9.95332 8.08586 9.79994C7.91644 9.64656 7.73007 9.4625 7.52676 9.24776C7.32344 9.03303 7.17661 8.79529 7.08625 8.53455C6.99588 8.2738 6.9507 7.98238 6.9507 7.66028C6.9507 6.43324 7.67359 5.81971 9.11937 5.81971C9.71801 5.81971 10.3449 5.9961 11 6.34888C11.6664 6.68631 12.2199 7.20781 12.6604 7.91336C13.6304 6.5415 14.1395 5.75262 13.5075 3.47299C13.4736 3.3963 13.4172 3.2966 13.3381 3.1739C13.259 3.03586 13.067 2.80579 12.762 2.48369C12.4684 2.14625 12.1408 1.85483 11.7794 1.60942C11.4179 1.36401 10.9153 1.14161 10.2715 0.942215C9.63894 0.727483 8.96124 0.620117 8.23835 0.620117C0.581718 0.620117 1.55285 4.41493 3.74707 9.24776C4.21544 10.0152 4.44444 10.3706 4.65768 10.7016C4.83772 10.9811 5.00652 11.2431 5.29867 11.7209C5.58878 12.1954 5.89528 12.5896 6.1653 12.937C6.42834 13.2753 6.65675 13.5691 6.80167 13.8492C7.09534 14.4013 7.47373 14.9382 7.93683 15.4597C8.18475 15.7242 8.29285 15.9074 8.37986 16.0548C8.45934 16.1895 8.52123 16.2944 8.65603 16.4042C8.78813 16.5512 8.94384 16.7653 9.10813 16.9912C9.39244 17.382 9.70242 17.8082 9.96013 17.9832C10.2609 18.3656 10.4857 18.7124 10.6904 19.0282C10.9011 19.3532 11.0905 19.6455 11.3197 19.91C11.8469 21.596 10.3208 22.1891 9.8214 22.3453C9.44104 22.4643 9.05798 22.5298 8.65389 22.5988C8.52737 22.6204 8.39878 22.6424 8.26758 22.6665C8.18846 22.681 8.11059 22.696 8.03256 22.711L8.03231 22.711C7.56771 22.8004 7.09737 22.891 6.32382 22.891C5.42021 22.891 4.57873 22.5842 3.79936 21.9707C3.02 21.3418 2.39877 20.6056 1.93567 19.762C2.03464 20.1785 2.13383 20.5764 2.22852 20.9563C2.82501 23.3491 3.24324 25.0269 2.3084 26.1455C2.43155 26.3215 2.30924 26.2365 2.24237 26.19C2.1927 26.1555 2.17362 26.1423 2.30841 26.273C2.43209 26.3888 2.56866 26.5068 2.71811 26.6271Z" fill="white"/>
</svg>
