<svg width="38" height="36" viewBox="0 0 38 36" fill="none" xmlns="http://www.w3.org/2000/svg">
<path d="M28.6967 10.73C27.6143 9.55943 27.0179 8.05615 27.0183 6.5H22.1258V25.1C22.0881 26.1065 21.6395 27.0599 20.8746 27.7594C20.1097 28.4589 19.0881 28.8499 18.025 28.85C15.7767 28.85 13.9083 27.11 13.9083 24.95C13.9083 22.37 16.5367 20.435 19.2442 21.23V16.49C13.7817 15.8 9 19.82 9 24.95C9 29.945 13.37 33.5 18.0092 33.5C22.9808 33.5 27.0183 29.675 27.0183 24.95V15.515C29.0022 16.8648 31.3842 17.589 33.8267 17.585V12.95C33.8267 12.95 30.85 13.085 28.6967 10.73Z" fill="white"/>
</svg>
