<svg width="47" height="35" viewBox="0 0 47 35" fill="none" xmlns="http://www.w3.org/2000/svg">
<path d="M42.9873 8.24835C41.5246 8.74068 39.9736 9.06411 38.3854 9.20793C40.0588 8.44542 41.3108 7.24609 41.9082 5.83335C40.3366 6.54501 38.6135 7.04376 36.8195 7.31356C35.6131 6.33148 34.0142 5.68017 32.2711 5.46087C30.5281 5.24157 28.7387 5.46656 27.1811 6.10088C25.6234 6.7352 24.3849 7.7433 23.6579 8.96846C22.931 10.1936 22.7564 11.5672 23.1613 12.8756C19.9738 12.7543 16.8554 12.1242 14.0087 11.0263C11.162 9.92835 8.65068 8.38714 6.63772 6.50272C5.92527 7.4338 5.55088 8.49222 5.55289 9.5696C5.55289 11.6842 6.9693 13.5523 9.11788 14.6461C7.84525 14.6155 6.60063 14.354 5.48772 13.8833V13.9577C5.48766 15.3663 6.12795 16.7315 7.29999 17.8218C8.47202 18.9122 10.1037 19.6605 11.9181 19.9398C10.7368 20.1837 9.49795 20.2196 8.29563 20.0448C8.80724 21.2573 9.80446 22.3176 11.1476 23.0773C12.4908 23.8369 14.1126 24.2579 15.786 24.2813C14.123 25.275 12.2188 26.0097 10.1824 26.4431C8.146 26.8765 6.01727 27.0002 3.91797 26.8071C7.5821 28.5999 11.8474 29.5518 16.2038 29.5488C30.9506 29.5488 39.0121 20.2548 39.0121 12.1946C39.0121 11.9321 39.0045 11.6667 38.9891 11.4056C40.5577 10.5428 41.9116 9.47271 42.9873 8.24835Z" fill="white"/>
</svg>
