<svg width="37" height="26" viewBox="0 0 37 26" fill="none" xmlns="http://www.w3.org/2000/svg">
<path d="M35.6618 4.06812C35.2478 2.46682 34.0279 1.20568 32.479 0.777698C29.6716 0 18.4141 0 18.4141 0C18.4141 0 7.15661 0 4.3491 0.777698C2.80022 1.20575 1.58035 2.46682 1.16632 4.06812C0.414062 6.97057 0.414062 13.0263 0.414062 13.0263C0.414062 13.0263 0.414062 19.082 1.16632 21.9844C1.58035 23.5857 2.80022 24.7943 4.3491 25.2223C7.15661 26 18.4141 26 18.4141 26C18.4141 26 29.6715 26 32.479 25.2223C34.0279 24.7943 35.2478 23.5857 35.6618 21.9844C36.4141 19.082 36.4141 13.0263 36.4141 13.0263C36.4141 13.0263 36.4141 6.97057 35.6618 4.06812ZM14.7322 18.5244V7.52815L24.1413 13.0264L14.7322 18.5244Z" fill="white"/>
</svg>
